<?xml version="1.0" encoding="UTF-8"?>
<!DOCTYPE svg PUBLIC "-//W3C//DTD SVG 1.1//EN" "http://www.w3.org/Graphics/SVG/1.1/DTD/svg11.dtd">
<svg xmlns="http://www.w3.org/2000/svg" version="1.1" width="616px" height="240px" style="shape-rendering:geometricPrecision; text-rendering:geometricPrecision; image-rendering:optimizeQuality; fill-rule:evenodd; clip-rule:evenodd" xmlns:xlink="http://www.w3.org/1999/xlink">
<g><path style="opacity:1" fill="#fefefe" d="M -0.5,-0.5 C 204.833,-0.5 410.167,-0.5 615.5,-0.5C 615.5,79.5 615.5,159.5 615.5,239.5C 410.167,239.5 204.833,239.5 -0.5,239.5C -0.5,159.5 -0.5,79.5 -0.5,-0.5 Z"/></g>
<g><path style="opacity:1" fill="#0f2659" d="M 317.5,15.5 C 319.786,15.595 321.786,16.2616 323.5,17.5C 326.314,19.143 329.314,20.643 332.5,22C 329.032,25.4908 324.865,27.6574 320,28.5C 318.833,28.3333 317.667,28.1667 316.5,28C 317.696,27.3457 317.696,26.8457 316.5,26.5C 315.452,27.3829 314.285,28.0496 313,28.5C 309.895,27.6328 306.728,27.2994 303.5,27.5C 303.5,26.1667 303.5,24.8333 303.5,23.5C 305.042,22.6993 306.708,22.366 308.5,22.5C 308.5,20.1667 308.5,17.8333 308.5,15.5C 311.5,15.5 314.5,15.5 317.5,15.5 Z"/></g>
<g><path style="opacity:1" fill="#213051" d="M 317.5,15.5 C 314.5,15.5 311.5,15.5 308.5,15.5C 308.5,17.8333 308.5,20.1667 308.5,22.5C 306.708,22.366 305.042,22.6993 303.5,23.5C 303.818,20.3751 304.818,17.5418 306.5,15C 310.358,14.1901 314.024,14.3567 317.5,15.5 Z"/></g>
<g><path style="opacity:1" fill="#dde4ed" d="M 354.5,31.5 C 353.833,31.5 353.167,31.5 352.5,31.5C 351.426,30.1154 350.093,28.9487 348.5,28C 341.583,24.7108 334.916,21.2108 328.5,17.5C 329.566,16.3079 330.399,16.6412 331,18.5C 331.414,18.0426 331.914,17.7093 332.5,17.5C 334.667,18.7919 337,19.6253 339.5,20C 340.833,20.6667 340.833,21.3333 339.5,22C 343.578,20.6794 346.411,22.1794 348,26.5C 350.382,25.1337 352.548,25.467 354.5,27.5C 353.975,28.1924 353.308,28.6924 352.5,29C 353.381,29.7083 354.047,30.5416 354.5,31.5 Z"/></g>
<g><path style="opacity:1" fill="#1c325f" d="M 323.5,17.5 C 325.167,17.5 326.833,17.5 328.5,17.5C 334.916,21.2108 341.583,24.7108 348.5,28C 350.093,28.9487 351.426,30.1154 352.5,31.5C 351.5,31.5 350.5,31.5 349.5,31.5C 347.712,31.7852 346.045,31.4519 344.5,30.5C 341.963,27.9548 338.963,26.2882 335.5,25.5C 335.5,26.5 335.5,27.5 335.5,28.5C 332.654,29.1784 330.154,30.5118 328,32.5C 325.516,32.1742 323.349,31.1742 321.5,29.5C 320.034,30.1355 318.7,30.9688 317.5,32C 319.608,32.3599 321.608,33.0266 323.5,34C 322.906,34.4643 322.239,34.631 321.5,34.5C 314.262,32.4208 306.929,30.7541 299.5,29.5C 297.518,29.0046 295.518,28.5046 293.5,28C 297.191,27.1642 300.524,25.6642 303.5,23.5C 303.5,24.8333 303.5,26.1667 303.5,27.5C 306.728,27.2994 309.895,27.6328 313,28.5C 314.285,28.0496 315.452,27.3829 316.5,26.5C 317.696,26.8457 317.696,27.3457 316.5,28C 317.667,28.1667 318.833,28.3333 320,28.5C 324.865,27.6574 329.032,25.4908 332.5,22C 329.314,20.643 326.314,19.143 323.5,17.5 Z"/></g>
<g><path style="opacity:1" fill="#214078" d="M 349.5,31.5 C 350.982,33.8853 352.649,36.2187 354.5,38.5C 352.134,39.5911 349.634,38.9244 347,36.5C 345.299,38.4101 343.133,39.5768 340.5,40C 341.71,41.0391 342.71,42.2058 343.5,43.5C 342.833,43.5 342.167,43.5 341.5,43.5C 339.967,41.7549 337.967,40.7549 335.5,40.5C 330.675,38.676 326.008,36.676 321.5,34.5C 322.239,34.631 322.906,34.4643 323.5,34C 321.608,33.0266 319.608,32.3599 317.5,32C 318.7,30.9688 320.034,30.1355 321.5,29.5C 323.349,31.1742 325.516,32.1742 328,32.5C 330.154,30.5118 332.654,29.1784 335.5,28.5C 335.5,27.5 335.5,26.5 335.5,25.5C 338.963,26.2882 341.963,27.9548 344.5,30.5C 346.045,31.4519 347.712,31.7852 349.5,31.5 Z"/></g>
<g><path style="opacity:1" fill="#c4886c" d="M 284.5,34.5 C 280.749,35.9729 277.083,37.6396 273.5,39.5C 270.237,40.4822 266.903,41.1489 263.5,41.5C 266.167,40.1667 268.833,38.8333 271.5,37.5C 275.786,36.2934 280.12,35.2934 284.5,34.5 Z"/></g>
<g><path style="opacity:1" fill="#b5633c" d="M 284.5,34.5 C 295.461,35.1614 305.795,37.8281 315.5,42.5C 312.461,41.99 309.461,41.3234 306.5,40.5C 303.713,39.5233 300.713,39.19 297.5,39.5C 297.423,38.2502 296.756,37.4169 295.5,37C 292.443,36.7435 289.443,36.2435 286.5,35.5C 282.396,37.6088 278.063,38.9421 273.5,39.5C 277.083,37.6396 280.749,35.9729 284.5,34.5 Z"/></g>
<g><path style="opacity:1" fill="#fbf1e4" d="M 306.5,35.5 C 308.582,35.472 310.416,36.1387 312,37.5C 312.617,36.5509 312.451,35.7175 311.5,35C 314.312,34.5343 316.979,35.0343 319.5,36.5C 317.922,37.2978 316.256,37.7978 314.5,38C 315.822,39.9764 317.488,41.4764 319.5,42.5C 318.167,42.5 316.833,42.5 315.5,42.5C 305.795,37.8281 295.461,35.1614 284.5,34.5C 280.12,35.2934 275.786,36.2934 271.5,37.5C 272.987,36.1964 274.654,35.0298 276.5,34C 280.644,33.3127 284.811,32.8127 289,32.5C 294.89,33.2654 300.723,34.2654 306.5,35.5 Z"/></g>
<g><path style="opacity:1" fill="#c85329" d="M 297.5,39.5 C 290.77,41.7098 283.77,42.8764 276.5,43C 276.167,44 275.833,45 275.5,46C 274.207,46.49 272.873,46.6567 271.5,46.5C 271.649,45.448 271.483,44.448 271,43.5C 267.386,44.5596 264.22,46.393 261.5,49C 258.447,49.1786 255.447,49.6786 252.5,50.5C 255.452,52.4709 258.452,54.1376 261.5,55.5C 254.805,55.3293 248.472,53.8293 242.5,51C 248.128,46.9117 254.461,44.4117 261.5,43.5C 262.713,43.2528 263.38,42.5862 263.5,41.5C 266.903,41.1489 270.237,40.4822 273.5,39.5C 278.063,38.9421 282.396,37.6088 286.5,35.5C 289.443,36.2435 292.443,36.7435 295.5,37C 296.756,37.4169 297.423,38.2502 297.5,39.5 Z"/></g>
<g><path style="opacity:1" fill="#f3f7f5" d="M 299.5,29.5 C 306.929,30.7541 314.262,32.4208 321.5,34.5C 326.008,36.676 330.675,38.676 335.5,40.5C 337.033,42.2451 339.033,43.2451 341.5,43.5C 348.159,47.1631 354.826,50.8298 361.5,54.5C 367.262,59.887 373.595,64.5537 380.5,68.5C 385.229,73.5607 390.562,77.894 396.5,81.5C 399.452,85.1185 402.785,88.4519 406.5,91.5C 412.213,96.8829 417.88,102.216 423.5,107.5C 425.937,108.738 426.937,110.405 426.5,112.5C 425.115,111.426 423.949,110.093 423,108.5C 422.586,108.957 422.086,109.291 421.5,109.5C 416.796,105.163 411.796,101.33 406.5,98C 405.782,96.0126 404.782,94.1792 403.5,92.5C 401.618,92.6425 399.618,92.1425 397.5,91C 394.349,88.2365 391.349,85.2365 388.5,82C 386.866,81.5065 385.199,81.3398 383.5,81.5C 383.5,81.1667 383.5,80.8333 383.5,80.5C 383.439,78.4078 382.439,76.9078 380.5,76C 377.057,74.3821 374.057,72.2154 371.5,69.5C 370.311,68.5713 368.978,68.238 367.5,68.5C 367.5,67.5 367.5,66.5 367.5,65.5C 365.833,65.5 364.167,65.5 362.5,65.5C 360.685,64.3702 358.685,63.7036 356.5,63.5C 353.015,59.5846 348.682,56.9179 343.5,55.5C 341.777,53.7819 339.777,52.4486 337.5,51.5C 337.279,50.2652 336.612,49.2652 335.5,48.5C 330.219,46.124 324.886,44.124 319.5,42.5C 317.488,41.4764 315.822,39.9764 314.5,38C 316.256,37.7978 317.922,37.2978 319.5,36.5C 316.979,35.0343 314.312,34.5343 311.5,35C 312.451,35.7175 312.617,36.5509 312,37.5C 310.416,36.1387 308.582,35.472 306.5,35.5C 305.386,34.1147 304.386,32.6147 303.5,31C 302.451,30.5078 301.451,30.6744 300.5,31.5C 299.702,31.0431 299.369,30.3764 299.5,29.5 Z"/></g>
<g><path style="opacity:1" fill="#2c518f" d="M 349.5,31.5 C 350.5,31.5 351.5,31.5 352.5,31.5C 353.167,31.5 353.833,31.5 354.5,31.5C 354.5,31.8333 354.5,32.1667 354.5,32.5C 354.56,37.0614 356.893,39.5614 361.5,40C 363.141,41.129 364.141,42.629 364.5,44.5C 364.565,44.9382 364.399,45.2716 364,45.5C 362.685,42.594 360.518,41.4274 357.5,42C 358.821,43.5445 358.488,44.7112 356.5,45.5C 352.171,45.6802 347.837,45.0136 343.5,43.5C 342.71,42.2058 341.71,41.0391 340.5,40C 343.133,39.5768 345.299,38.4101 347,36.5C 349.634,38.9244 352.134,39.5911 354.5,38.5C 352.649,36.2187 350.982,33.8853 349.5,31.5 Z"/></g>
<g><path style="opacity:1" fill="#8997b2" d="M 335.5,40.5 C 337.967,40.7549 339.967,41.7549 341.5,43.5C 339.033,43.2451 337.033,42.2451 335.5,40.5 Z"/></g>
<g><path style="opacity:1" fill="#d25c23" d="M 297.5,39.5 C 300.713,39.19 303.713,39.5233 306.5,40.5C 305.791,41.404 304.791,41.7373 303.5,41.5C 303.649,42.552 303.483,43.552 303,44.5C 301.417,44.507 299.751,44.1737 298,43.5C 289.97,48.8955 281.137,50.8955 271.5,49.5C 271.67,50.8221 271.337,51.9887 270.5,53C 267.794,54.9076 264.794,55.741 261.5,55.5C 258.452,54.1376 255.452,52.4709 252.5,50.5C 255.447,49.6786 258.447,49.1786 261.5,49C 264.22,46.393 267.386,44.5596 271,43.5C 271.483,44.448 271.649,45.448 271.5,46.5C 272.873,46.6567 274.207,46.49 275.5,46C 275.833,45 276.167,44 276.5,43C 283.77,42.8764 290.77,41.7098 297.5,39.5 Z"/></g>
<g><path style="opacity:1" fill="#f9e4c2" d="M 319.5,42.5 C 324.886,44.124 330.219,46.124 335.5,48.5C 336.612,49.2652 337.279,50.2652 337.5,51.5C 331.246,48.869 325.246,45.869 319.5,42.5 Z"/></g>
<g><path style="opacity:1" fill="#416394" d="M 354.5,32.5 C 369.098,42.0992 381.765,53.7659 392.5,67.5C 392.167,67.5 391.833,67.5 391.5,67.5C 390.448,67.6495 389.448,67.4828 388.5,67C 387.624,64.8542 386.291,63.0208 384.5,61.5C 383.833,62.5 383.167,63.5 382.5,64.5C 380.568,63.4798 378.568,63.3131 376.5,64C 378.407,65.0692 379.741,66.5692 380.5,68.5C 373.595,64.5537 367.262,59.887 361.5,54.5C 362.873,54.3433 364.207,54.51 365.5,55C 368.743,57.2242 372.243,59.0575 376,60.5C 379.003,60.257 380.17,58.5904 379.5,55.5C 377.146,55.162 374.813,54.662 372.5,54C 371.887,51.8526 371.221,49.686 370.5,47.5C 369.28,46.2889 368.113,46.2889 367,47.5C 366.623,46.0577 365.79,45.0577 364.5,44.5C 364.141,42.629 363.141,41.129 361.5,40C 356.893,39.5614 354.56,37.0614 354.5,32.5 Z"/></g>
<g><path style="opacity:1" fill="#ced5df" d="M 228.5,55.5 C 218.86,54.2533 209.193,53.2533 199.5,52.5C 178.398,49.9024 157.065,48.9024 135.5,49.5C 156.677,48.7521 178.01,48.0854 199.5,47.5C 199.5,48.5 199.5,49.5 199.5,50.5C 205.185,50.1966 210.852,50.0299 216.5,50C 220.61,51.7513 224.61,53.5847 228.5,55.5 Z"/></g>
<g><path style="opacity:1" fill="#da6a23" d="M 306.5,40.5 C 309.461,41.3234 312.461,41.99 315.5,42.5C 315.833,43.1667 316.167,43.8333 316.5,44.5C 310.911,42.5444 309.911,43.3778 313.5,47C 310.183,47.4983 306.85,47.665 303.5,47.5C 303.64,49.1238 302.973,50.2904 301.5,51C 294.375,54.0025 287.375,56.5025 280.5,58.5C 279.199,57.5221 278.032,57.8555 277,59.5C 272.889,58.596 268.722,58.2627 264.5,58.5C 263.694,57.2719 262.694,56.2719 261.5,55.5C 264.794,55.741 267.794,54.9076 270.5,53C 271.337,51.9887 271.67,50.8221 271.5,49.5C 281.137,50.8955 289.97,48.8955 298,43.5C 299.751,44.1737 301.417,44.507 303,44.5C 303.483,43.552 303.649,42.552 303.5,41.5C 304.791,41.7373 305.791,41.404 306.5,40.5 Z"/></g>
<g><path style="opacity:1" fill="#3e64a2" d="M 364.5,44.5 C 365.79,45.0577 366.623,46.0577 367,47.5C 368.113,46.2889 369.28,46.2889 370.5,47.5C 371.221,49.686 371.887,51.8526 372.5,54C 374.813,54.662 377.146,55.162 379.5,55.5C 380.17,58.5904 379.003,60.257 376,60.5C 372.243,59.0575 368.743,57.2242 365.5,55C 364.207,54.51 362.873,54.3433 361.5,54.5C 354.826,50.8298 348.159,47.1631 341.5,43.5C 342.167,43.5 342.833,43.5 343.5,43.5C 347.837,45.0136 352.171,45.6802 356.5,45.5C 358.488,44.7112 358.821,43.5445 357.5,42C 360.518,41.4274 362.685,42.594 364,45.5C 364.399,45.2716 364.565,44.9382 364.5,44.5 Z"/></g>
<g><path style="opacity:1" fill="#de7425" d="M 316.5,44.5 C 318.433,44.7286 320.1,45.5619 321.5,47C 320.244,47.4169 319.577,48.2502 319.5,49.5C 309.074,51.9985 298.407,54.6652 287.5,57.5C 287.16,60.1441 287.827,62.4775 289.5,64.5C 288.757,65.1818 288.091,65.8485 287.5,66.5C 284.341,64.9205 281.007,63.9205 277.5,63.5C 277.047,62.5416 276.381,61.7083 275.5,61C 272.207,60.1744 268.874,59.6744 265.5,59.5C 265.167,59.5 264.833,59.5 264.5,59.5C 264.5,59.1667 264.5,58.8333 264.5,58.5C 268.722,58.2627 272.889,58.596 277,59.5C 278.032,57.8555 279.199,57.5221 280.5,58.5C 287.375,56.5025 294.375,54.0025 301.5,51C 302.973,50.2904 303.64,49.1238 303.5,47.5C 306.85,47.665 310.183,47.4983 313.5,47C 309.911,43.3778 310.911,42.5444 316.5,44.5 Z"/></g>
<g><path style="opacity:1" fill="#192c53" d="M 135.5,49.5 C 157.065,48.9024 178.398,49.9024 199.5,52.5C 196.833,52.5 194.167,52.5 191.5,52.5C 191.762,53.9778 191.429,55.3112 190.5,56.5C 189.315,55.147 187.981,53.9803 186.5,53C 183.294,52.7037 180.128,52.2037 177,51.5C 165.862,52.0661 154.696,52.2328 143.5,52C 143.043,52.414 142.709,52.914 142.5,53.5C 138.541,54.3265 134.541,54.8265 130.5,55C 130.833,55.3333 131.167,55.6667 131.5,56C 129.212,56.8221 126.878,57.4888 124.5,58C 125.938,62.3192 128.938,64.1525 133.5,63.5C 130.373,64.9601 127.373,64.6268 124.5,62.5C 121.189,58.8534 117.855,55.1867 114.5,51.5C 121.364,49.7159 128.364,49.0492 135.5,49.5 Z"/></g>
<g><path style="opacity:1" fill="#b96e4e" d="M 263.5,41.5 C 263.38,42.5862 262.713,43.2528 261.5,43.5C 254.461,44.4117 248.128,46.9117 242.5,51C 248.472,53.8293 254.805,55.3293 261.5,55.5C 262.694,56.2719 263.694,57.2719 264.5,58.5C 264.5,58.8333 264.5,59.1667 264.5,59.5C 254.143,56.994 243.81,54.3273 233.5,51.5C 236.504,50.0109 239.504,48.6776 242.5,47.5C 249.262,44.6907 256.262,42.6907 263.5,41.5 Z"/></g>
<g><path style="opacity:1" fill="#d58b42" d="M 315.5,42.5 C 316.833,42.5 318.167,42.5 319.5,42.5C 325.246,45.869 331.246,48.869 337.5,51.5C 339.777,52.4486 341.777,53.7819 343.5,55.5C 339.664,54.1155 335.664,53.1155 331.5,52.5C 328.258,48.7331 324.258,47.7331 319.5,49.5C 319.577,48.2502 320.244,47.4169 321.5,47C 320.1,45.5619 318.433,44.7286 316.5,44.5C 316.167,43.8333 315.833,43.1667 315.5,42.5 Z"/></g>
<g><path style="opacity:1" fill="#e67d21" d="M 331.5,52.5 C 327.616,53.7927 323.616,54.4593 319.5,54.5C 319.5,55.5 319.5,56.5 319.5,57.5C 316.72,57.9452 314.053,57.9452 311.5,57.5C 309.255,59.6227 306.588,60.6227 303.5,60.5C 303.5,61.5 303.5,62.5 303.5,63.5C 298.318,64.8829 292.985,65.8829 287.5,66.5C 288.091,65.8485 288.757,65.1818 289.5,64.5C 287.827,62.4775 287.16,60.1441 287.5,57.5C 298.407,54.6652 309.074,51.9985 319.5,49.5C 324.258,47.7331 328.258,48.7331 331.5,52.5 Z"/></g>
<g><path style="opacity:1" fill="#102759" d="M 199.5,52.5 C 209.193,53.2533 218.86,54.2533 228.5,55.5C 228.5,56.1667 228.833,56.5 229.5,56.5C 232.367,58.4447 235.7,59.7781 239.5,60.5C 235.733,61.3984 232.066,62.3984 228.5,63.5C 224.412,63.9958 223.745,62.9958 226.5,60.5C 226,60.1667 225.5,59.8333 225,59.5C 223.829,60.3396 222.662,61.1729 221.5,62C 223.981,63.8038 223.981,65.3038 221.5,66.5C 220.5,66.5 219.5,66.5 218.5,66.5C 218.5,65.5 218.5,64.5 218.5,63.5C 194.003,62.4121 169.67,62.4121 145.5,63.5C 141.5,63.5 137.5,63.5 133.5,63.5C 128.938,64.1525 125.938,62.3192 124.5,58C 126.878,57.4888 129.212,56.8221 131.5,56C 131.167,55.6667 130.833,55.3333 130.5,55C 134.541,54.8265 138.541,54.3265 142.5,53.5C 142.709,52.914 143.043,52.414 143.5,52C 154.696,52.2328 165.862,52.0661 177,51.5C 180.128,52.2037 183.294,52.7037 186.5,53C 187.981,53.9803 189.315,55.147 190.5,56.5C 191.429,55.3112 191.762,53.9778 191.5,52.5C 194.167,52.5 196.833,52.5 199.5,52.5 Z"/></g>
<g><path style="opacity:1" fill="#f7e2cf" d="M 242.5,47.5 C 239.504,48.6776 236.504,50.0109 233.5,51.5C 243.81,54.3273 254.143,56.994 264.5,59.5C 264.833,59.5 265.167,59.5 265.5,59.5C 267.5,60.5 269.5,61.5 271.5,62.5C 259.564,60.7235 247.898,58.3902 236.5,55.5C 235.22,54.0687 233.553,53.4021 231.5,53.5C 231.297,51.6096 231.963,50.1096 233.5,49C 236.351,47.7114 239.351,47.2114 242.5,47.5 Z"/></g>
<g><path style="opacity:1" fill="#e1ac56" d="M 343.5,55.5 C 348.682,56.9179 353.015,59.5846 356.5,63.5C 352.284,62.2507 348.284,60.5841 344.5,58.5C 344.443,57.391 344.11,56.391 343.5,55.5 Z"/></g>
<g><path style="opacity:1" fill="#93a2bd" d="M 249.5,60.5 C 252.152,60.4095 254.485,61.0762 256.5,62.5C 253.848,62.5905 251.515,61.9238 249.5,60.5 Z"/></g>
<g><path style="opacity:1" fill="#cf884f" d="M 265.5,59.5 C 268.874,59.6744 272.207,60.1744 275.5,61C 276.381,61.7083 277.047,62.5416 277.5,63.5C 276.833,63.5 276.167,63.5 275.5,63.5C 273.901,63.7678 272.568,63.4345 271.5,62.5C 269.5,61.5 267.5,60.5 265.5,59.5 Z"/></g>
<g><path style="opacity:1" fill="#3a4c71" d="M 145.5,63.5 C 169.67,62.4121 194.003,62.4121 218.5,63.5C 218.5,64.5 218.5,65.5 218.5,66.5C 219.5,66.5 220.5,66.5 221.5,66.5C 222.167,67.1667 222.833,67.8333 223.5,68.5C 216.823,67.9271 210.157,67.2605 203.5,66.5C 199.79,64.8643 195.79,64.1977 191.5,64.5C 176.184,63.6408 160.851,63.3075 145.5,63.5 Z"/></g>
<g><path style="opacity:1" fill="#d8a36a" d="M 277.5,63.5 C 281.007,63.9205 284.341,64.9205 287.5,66.5C 287.5,66.8333 287.5,67.1667 287.5,67.5C 283.673,67.2484 280.34,65.9151 277.5,63.5 Z"/></g>
<g><path style="opacity:1" fill="#f69720" d="M 344.5,58.5 C 348.284,60.5841 352.284,62.2507 356.5,63.5C 356.5,64.5 356.5,65.5 356.5,66.5C 351.971,67.4312 347.637,68.9312 343.5,71C 337.188,71.1726 331.521,73.0059 326.5,76.5C 322.213,75.6255 317.879,75.2921 313.5,75.5C 312.5,74.8333 311.5,74.1667 310.5,73.5C 311.589,71.8829 313.256,71.0496 315.5,71C 313.679,68.8634 311.346,68.0301 308.5,68.5C 308.5,67.5 308.5,66.5 308.5,65.5C 311.948,65.1079 315.114,65.7746 318,67.5C 322.878,66.0784 327.378,63.9117 331.5,61C 336.053,60.9508 340.386,60.1174 344.5,58.5 Z"/></g>
<g><path style="opacity:1" fill="#dde5ed" d="M 124.5,62.5 C 127.373,64.6268 130.373,64.9601 133.5,63.5C 137.5,63.5 141.5,63.5 145.5,63.5C 160.851,63.3075 176.184,63.6408 191.5,64.5C 194.167,65.1061 196.834,65.9395 199.5,67C 195.514,67.4988 191.514,67.6655 187.5,67.5C 185.167,67.5 182.833,67.5 180.5,67.5C 178.833,67.5 177.167,67.5 175.5,67.5C 160.636,66.1169 145.636,66.2836 130.5,68C 134.037,71.3691 137.371,74.8691 140.5,78.5C 136.17,78.0347 131.836,77.7014 127.5,77.5C 129.167,76.1667 130.833,74.8333 132.5,73.5C 131.135,72.059 129.635,70.7256 128,69.5C 128.617,67.9052 128.284,66.5719 127,65.5C 126.667,66.1667 126.333,66.8333 126,67.5C 125.392,65.8455 124.892,64.1789 124.5,62.5 Z"/></g>
<g><path style="opacity:1" fill="#ee8d23" d="M 331.5,52.5 C 335.664,53.1155 339.664,54.1155 343.5,55.5C 344.11,56.391 344.443,57.391 344.5,58.5C 340.386,60.1174 336.053,60.9508 331.5,61C 327.378,63.9117 322.878,66.0784 318,67.5C 315.114,65.7746 311.948,65.1079 308.5,65.5C 308.5,66.5 308.5,67.5 308.5,68.5C 311.346,68.0301 313.679,68.8634 315.5,71C 313.256,71.0496 311.589,71.8829 310.5,73.5C 308.236,72.7814 305.903,72.448 303.5,72.5C 298.399,70.294 293.066,68.6273 287.5,67.5C 287.5,67.1667 287.5,66.8333 287.5,66.5C 292.985,65.8829 298.318,64.8829 303.5,63.5C 303.5,62.5 303.5,61.5 303.5,60.5C 306.588,60.6227 309.255,59.6227 311.5,57.5C 314.053,57.9452 316.72,57.9452 319.5,57.5C 319.5,56.5 319.5,55.5 319.5,54.5C 323.616,54.4593 327.616,53.7927 331.5,52.5 Z"/></g>
<g><path style="opacity:1" fill="#254379" d="M 229.5,56.5 C 236.172,57.8349 242.839,59.1682 249.5,60.5C 251.515,61.9238 253.848,62.5905 256.5,62.5C 259.833,63.5 263.167,64.5 266.5,65.5C 266.833,66.1667 267.167,66.8333 267.5,67.5C 264.253,67.4152 261.419,68.4152 259,70.5C 258.481,69.4844 257.647,68.8178 256.5,68.5C 253.435,69.0641 250.435,69.7308 247.5,70.5C 239.5,69.8333 231.5,69.1667 223.5,68.5C 222.833,67.8333 222.167,67.1667 221.5,66.5C 223.981,65.3038 223.981,63.8038 221.5,62C 222.662,61.1729 223.829,60.3396 225,59.5C 225.5,59.8333 226,60.1667 226.5,60.5C 223.745,62.9958 224.412,63.9958 228.5,63.5C 232.066,62.3984 235.733,61.3984 239.5,60.5C 235.7,59.7781 232.367,58.4447 229.5,56.5 Z"/></g>
<g><path style="opacity:1" fill="#c6d1e0" d="M 191.5,64.5 C 195.79,64.1977 199.79,64.8643 203.5,66.5C 202.448,66.3505 201.448,66.5172 200.5,67C 202.97,68.0214 205.304,69.1881 207.5,70.5C 200.679,69.6506 194.012,68.6506 187.5,67.5C 191.514,67.6655 195.514,67.4988 199.5,67C 196.834,65.9395 194.167,65.1061 191.5,64.5 Z"/></g>
<g><path style="opacity:1" fill="#e8eef2" d="M 228.5,55.5 C 231.167,55.5 233.833,55.5 236.5,55.5C 247.898,58.3902 259.564,60.7235 271.5,62.5C 272.568,63.4345 273.901,63.7678 275.5,63.5C 278.696,67.0148 282.696,68.6815 287.5,68.5C 289.884,70.8847 292.55,72.8847 295.5,74.5C 291.752,73.7926 288.086,72.7926 284.5,71.5C 282.383,69.3455 279.716,68.3455 276.5,68.5C 273.275,67.193 269.941,66.193 266.5,65.5C 263.167,64.5 259.833,63.5 256.5,62.5C 254.485,61.0762 252.152,60.4095 249.5,60.5C 242.839,59.1682 236.172,57.8349 229.5,56.5C 228.833,56.5 228.5,56.1667 228.5,55.5 Z"/></g>
<g><path style="opacity:1" fill="#a0b0d0" d="M 276.5,68.5 C 279.716,68.3455 282.383,69.3455 284.5,71.5C 281.603,70.871 278.936,69.871 276.5,68.5 Z"/></g>
<g><path style="opacity:1" fill="#2b4a84" d="M 391.5,67.5 C 392.552,70.1931 393.552,72.8598 394.5,75.5C 390.134,75.9772 387.134,74.1439 385.5,70C 383.846,69.3923 382.179,68.8923 380.5,68.5C 379.741,66.5692 378.407,65.0692 376.5,64C 378.568,63.3131 380.568,63.4798 382.5,64.5C 383.167,63.5 383.833,62.5 384.5,61.5C 386.291,63.0208 387.624,64.8542 388.5,67C 389.448,67.4828 390.448,67.6495 391.5,67.5 Z"/></g>
<g><path style="opacity:1" fill="#476695" d="M 266.5,65.5 C 269.941,66.193 273.275,67.193 276.5,68.5C 278.936,69.871 281.603,70.871 284.5,71.5C 288.086,72.7926 291.752,73.7926 295.5,74.5C 298.705,76.4639 302.038,78.1305 305.5,79.5C 302.017,80.0841 299.017,79.2508 296.5,77C 286.91,73.8861 277.243,70.7195 267.5,67.5C 267.167,66.8333 266.833,66.1667 266.5,65.5 Z"/></g>
<g><path style="opacity:1" fill="#f8e6c9" d="M 362.5,65.5 C 364.167,65.5 365.833,65.5 367.5,65.5C 367.5,66.5 367.5,67.5 367.5,68.5C 368.978,68.238 370.311,68.5713 371.5,69.5C 374.057,72.2154 377.057,74.3821 380.5,76C 382.439,76.9078 383.439,78.4078 383.5,80.5C 379.199,78.683 375.199,76.3497 371.5,73.5C 369.469,71.4776 367.135,69.8109 364.5,68.5C 364.218,67.2223 363.551,66.2223 362.5,65.5 Z"/></g>
<g><path style="opacity:1" fill="#4a618c" d="M 223.5,68.5 C 231.5,69.1667 239.5,69.8333 247.5,70.5C 248.058,71.7899 249.058,72.6232 250.5,73C 254.689,74.6309 259.022,75.4643 263.5,75.5C 264.853,76.5261 265.853,77.8595 266.5,79.5C 252.172,75.6092 237.839,71.9425 223.5,68.5 Z"/></g>
<g><path style="opacity:1" fill="#305595" d="M 267.5,67.5 C 268.279,69.4199 268.613,71.2532 268.5,73C 267.383,74.8921 265.716,75.7254 263.5,75.5C 259.022,75.4643 254.689,74.6309 250.5,73C 249.058,72.6232 248.058,71.7899 247.5,70.5C 250.435,69.7308 253.435,69.0641 256.5,68.5C 257.647,68.8178 258.481,69.4844 259,70.5C 261.419,68.4152 264.253,67.4152 267.5,67.5 Z"/></g>
<g><path style="opacity:1" fill="#faf5e1" d="M 287.5,68.5 C 291.362,69.4281 295.029,70.9281 298.5,73C 300.134,73.4935 301.801,73.6602 303.5,73.5C 306.619,75.0507 309.952,76.0507 313.5,76.5C 315.027,76.427 316.027,77.0937 316.5,78.5C 309.322,77.6637 302.322,76.3304 295.5,74.5C 292.55,72.8847 289.884,70.8847 287.5,68.5 Z"/></g>
<g><path style="opacity:1" fill="#f6dfb2" d="M 275.5,63.5 C 276.167,63.5 276.833,63.5 277.5,63.5C 280.34,65.9151 283.673,67.2484 287.5,67.5C 293.066,68.6273 298.399,70.294 303.5,72.5C 303.5,72.8333 303.5,73.1667 303.5,73.5C 301.801,73.6602 300.134,73.4935 298.5,73C 295.029,70.9281 291.362,69.4281 287.5,68.5C 282.696,68.6815 278.696,67.0148 275.5,63.5 Z"/></g>
<g><path style="opacity:1" fill="#ea8825" d="M 356.5,63.5 C 358.685,63.7036 360.685,64.3702 362.5,65.5C 363.551,66.2223 364.218,67.2223 364.5,68.5C 363.839,69.7175 363.172,71.0508 362.5,72.5C 356.916,73.6517 351.916,75.8184 347.5,79C 345.167,79.3333 342.833,79.6667 340.5,80C 340.833,80.3333 341.167,80.6667 341.5,81C 340.048,82.5173 338.548,82.684 337,81.5C 336,82.1667 335,82.8333 334,83.5C 330.642,81.6605 327.142,80.3272 323.5,79.5C 321.139,79.3259 318.806,78.9926 316.5,78.5C 316.027,77.0937 315.027,76.427 313.5,76.5C 313.5,76.1667 313.5,75.8333 313.5,75.5C 317.879,75.2921 322.213,75.6255 326.5,76.5C 331.521,73.0059 337.188,71.1726 343.5,71C 347.637,68.9312 351.971,67.4312 356.5,66.5C 356.5,65.5 356.5,64.5 356.5,63.5 Z"/></g>
<g><path style="opacity:1" fill="#dea853" d="M 303.5,73.5 C 303.5,73.1667 303.5,72.8333 303.5,72.5C 305.903,72.448 308.236,72.7814 310.5,73.5C 311.5,74.1667 312.5,74.8333 313.5,75.5C 313.5,75.8333 313.5,76.1667 313.5,76.5C 309.952,76.0507 306.619,75.0507 303.5,73.5 Z"/></g>
<g><path style="opacity:1" fill="#253356" d="M 175.5,67.5 C 162.458,67.1471 149.458,67.6471 136.5,69C 135.549,69.7175 135.383,70.5509 136,71.5C 137.947,72.1097 139.781,72.9431 141.5,74C 140.668,75.9088 141.001,77.7422 142.5,79.5C 141.508,79.6716 140.842,79.3382 140.5,78.5C 137.371,74.8691 134.037,71.3691 130.5,68C 145.636,66.2836 160.636,66.1169 175.5,67.5 Z"/></g>
<g><path style="opacity:1" fill="#30496f" d="M 391.5,67.5 C 391.833,67.5 392.167,67.5 392.5,67.5C 395.215,70.2139 397.549,73.2139 399.5,76.5C 398.375,77.0141 397.209,77.3474 396,77.5C 395.544,78.7441 396.044,79.5774 397.5,80C 396.944,80.3826 396.611,80.8826 396.5,81.5C 390.562,77.894 385.229,73.5607 380.5,68.5C 382.179,68.8923 383.846,69.3923 385.5,70C 387.134,74.1439 390.134,75.9772 394.5,75.5C 393.552,72.8598 392.552,70.1931 391.5,67.5 Z"/></g>
<g><path style="opacity:1" fill="#132c62" d="M 175.5,67.5 C 177.167,67.5 178.833,67.5 180.5,67.5C 180.611,68.1174 180.944,68.6174 181.5,69C 178.077,68.8551 176.077,70.3551 175.5,73.5C 179.313,73.5052 182.813,72.5052 186,70.5C 189.293,70.0465 191.126,71.3798 191.5,74.5C 188.833,74.5 186.167,74.5 183.5,74.5C 183.5,75.5 183.5,76.5 183.5,77.5C 175.874,78.4725 168.374,80.1392 161,82.5C 159.85,81.5761 158.85,81.5761 158,82.5C 157.517,81.552 157.351,80.552 157.5,79.5C 155.167,79.5 152.833,79.5 150.5,79.5C 150.5,80.5 150.5,81.5 150.5,82.5C 152.604,82.2011 154.604,82.5344 156.5,83.5C 154.576,83.567 152.576,83.9003 150.5,84.5C 150.863,85.1835 151.196,85.8501 151.5,86.5C 149.389,84.0768 146.722,82.4102 143.5,81.5C 143.167,80.8333 142.833,80.1667 142.5,79.5C 141.001,77.7422 140.668,75.9088 141.5,74C 139.781,72.9431 137.947,72.1097 136,71.5C 135.383,70.5509 135.549,69.7175 136.5,69C 149.458,67.6471 162.458,67.1471 175.5,67.5 Z"/></g>
<g><path style="opacity:1" fill="#2e5594" d="M 237.5,77.5 C 238.167,77.5 238.833,77.5 239.5,77.5C 239.157,79.4832 239.824,80.8166 241.5,81.5C 232.37,83.4743 223.537,86.4743 215,90.5C 214.586,90.0426 214.086,89.7093 213.5,89.5C 200.333,94.5739 187,99.4072 173.5,104C 172.934,104.995 172.267,105.828 171.5,106.5C 168.343,104.84 166.009,102.34 164.5,99C 162.846,98.3923 161.179,97.8923 159.5,97.5C 159.5,97.1667 159.5,96.8333 159.5,96.5C 159.5,95.8333 159.5,95.1667 159.5,94.5C 171.118,91.2344 182.784,88.4011 194.5,86C 199.273,82.4433 204.606,80.9433 210.5,81.5C 210.5,80.1667 210.5,78.8333 210.5,77.5C 219.532,76.6508 228.532,76.6508 237.5,77.5 Z"/></g>
<g><path style="opacity:1" fill="#a6bee0" d="M 247.5,79.5 C 250.428,79.5651 253.095,80.2318 255.5,81.5C 252.505,81.7062 249.838,81.0395 247.5,79.5 Z"/></g>
<g><path style="opacity:1" fill="#3c65a8" d="M 267.5,67.5 C 277.243,70.7195 286.91,73.8861 296.5,77C 299.017,79.2508 302.017,80.0841 305.5,79.5C 304.859,80.4822 304.193,81.4822 303.5,82.5C 304.325,83.3857 305.325,83.719 306.5,83.5C 306.573,85.0269 305.906,86.0269 304.5,86.5C 303.114,84.4073 301.447,84.574 299.5,87C 297.527,87.4955 295.527,87.6621 293.5,87.5C 293.5,86.5 293.5,85.5 293.5,84.5C 294.978,84.762 296.311,84.4287 297.5,83.5C 296.667,83.1667 295.833,82.8333 295,82.5C 289.604,85.2642 284.771,84.4309 280.5,80C 275.845,79.5008 271.179,79.3342 266.5,79.5C 265.853,77.8595 264.853,76.5261 263.5,75.5C 265.716,75.7254 267.383,74.8921 268.5,73C 268.613,71.2532 268.279,69.4199 267.5,67.5 Z"/></g>
<g><path style="opacity:1" fill="#df7a28" d="M 364.5,68.5 C 367.135,69.8109 369.469,71.4776 371.5,73.5C 371.782,74.7777 372.449,75.7777 373.5,76.5C 372.5,76.5 371.5,76.5 370.5,76.5C 370.5,77.5 370.5,78.5 370.5,79.5C 362.327,81.4547 353.993,82.6213 345.5,83C 344.269,84.4048 342.936,85.5714 341.5,86.5C 340.167,86.5 338.833,86.5 337.5,86.5C 335.167,85.8333 332.833,85.1667 330.5,84.5C 327.991,83.0787 325.657,81.4121 323.5,79.5C 327.142,80.3272 330.642,81.6605 334,83.5C 335,82.8333 336,82.1667 337,81.5C 338.548,82.684 340.048,82.5173 341.5,81C 341.167,80.6667 340.833,80.3333 340.5,80C 342.833,79.6667 345.167,79.3333 347.5,79C 351.916,75.8184 356.916,73.6517 362.5,72.5C 363.172,71.0508 363.839,69.7175 364.5,68.5 Z"/></g>
<g><path style="opacity:1" fill="#f8e0b5" d="M 316.5,78.5 C 318.806,78.9926 321.139,79.3259 323.5,79.5C 325.657,81.4121 327.991,83.0787 330.5,84.5C 324.726,84.5914 320.059,82.5914 316.5,78.5 Z"/></g>
<g><path style="opacity:1" fill="#c06e40" d="M 371.5,73.5 C 375.199,76.3497 379.199,78.683 383.5,80.5C 383.5,80.8333 383.5,81.1667 383.5,81.5C 385.5,83.1667 387.5,84.8333 389.5,86.5C 386.163,86.3227 383.163,85.3227 380.5,83.5C 378.79,80.4909 376.457,78.1576 373.5,76.5C 372.449,75.7777 371.782,74.7777 371.5,73.5 Z"/></g>
<g><path style="opacity:1" fill="#1e3d75" d="M 180.5,67.5 C 182.833,67.5 185.167,67.5 187.5,67.5C 194.012,68.6506 200.679,69.6506 207.5,70.5C 211.793,71.6566 216.127,72.6566 220.5,73.5C 218.373,74.095 217.207,75.095 217,76.5C 216.426,75.6458 215.759,74.6458 215,73.5C 213.715,73.9504 212.548,74.6171 211.5,75.5C 210.264,74.7542 208.93,74.4208 207.5,74.5C 207.5,75.5 207.5,76.5 207.5,77.5C 203.165,77.9167 198.832,78.4167 194.5,79C 195.5,79.3333 196.5,79.6667 197.5,80C 193.502,80.8836 189.169,81.5502 184.5,82C 178.539,84.5823 173.039,87.0823 168,89.5C 167.439,88.9781 166.772,88.6448 166,88.5C 163.231,90.6164 160.398,91.6164 157.5,91.5C 154.651,90.8249 152.651,89.1582 151.5,86.5C 151.196,85.8501 150.863,85.1835 150.5,84.5C 152.576,83.9003 154.576,83.567 156.5,83.5C 154.604,82.5344 152.604,82.2011 150.5,82.5C 150.5,81.5 150.5,80.5 150.5,79.5C 152.833,79.5 155.167,79.5 157.5,79.5C 157.351,80.552 157.517,81.552 158,82.5C 158.85,81.5761 159.85,81.5761 161,82.5C 168.374,80.1392 175.874,78.4725 183.5,77.5C 183.5,76.5 183.5,75.5 183.5,74.5C 186.167,74.5 188.833,74.5 191.5,74.5C 191.126,71.3798 189.293,70.0465 186,70.5C 182.813,72.5052 179.313,73.5052 175.5,73.5C 176.077,70.3551 178.077,68.8551 181.5,69C 180.944,68.6174 180.611,68.1174 180.5,67.5 Z"/></g>
<g><path style="opacity:1" fill="#3a4c6f" d="M 143.5,81.5 C 146.722,82.4102 149.389,84.0768 151.5,86.5C 152.651,89.1582 154.651,90.8249 157.5,91.5C 157.427,93.0269 158.094,94.0269 159.5,94.5C 159.5,95.1667 159.5,95.8333 159.5,96.5C 153.935,91.6525 148.601,86.6525 143.5,81.5 Z"/></g>
<g><path style="opacity:1" fill="#a6bbd3" d="M 257.5,82.5 C 262.43,83.2589 267.097,84.5922 271.5,86.5C 269.833,86.5 268.167,86.5 266.5,86.5C 263.5,85.1667 260.5,83.8333 257.5,82.5 Z"/></g>
<g><path style="opacity:1" fill="#d86824" d="M 373.5,76.5 C 376.457,78.1576 378.79,80.4909 380.5,83.5C 380.67,84.8221 380.337,85.9887 379.5,87C 377.432,87.6869 375.432,87.5202 373.5,86.5C 372.5,86.8333 371.833,87.5 371.5,88.5C 366.37,89.4361 361.203,90.1028 356,90.5C 351.258,88.9452 346.425,87.6119 341.5,86.5C 342.936,85.5714 344.269,84.4048 345.5,83C 353.993,82.6213 362.327,81.4547 370.5,79.5C 370.5,78.5 370.5,77.5 370.5,76.5C 371.5,76.5 372.5,76.5 373.5,76.5 Z"/></g>
<g><path style="opacity:1" fill="#254883" d="M 220.5,73.5 C 226.387,74.3901 232.054,75.7234 237.5,77.5C 228.532,76.6508 219.532,76.6508 210.5,77.5C 210.5,78.8333 210.5,80.1667 210.5,81.5C 204.606,80.9433 199.273,82.4433 194.5,86C 182.784,88.4011 171.118,91.2344 159.5,94.5C 158.094,94.0269 157.427,93.0269 157.5,91.5C 160.398,91.6164 163.231,90.6164 166,88.5C 166.772,88.6448 167.439,88.9781 168,89.5C 173.039,87.0823 178.539,84.5823 184.5,82C 189.169,81.5502 193.502,80.8836 197.5,80C 196.5,79.6667 195.5,79.3333 194.5,79C 198.832,78.4167 203.165,77.9167 207.5,77.5C 207.5,76.5 207.5,75.5 207.5,74.5C 208.93,74.4208 210.264,74.7542 211.5,75.5C 212.548,74.6171 213.715,73.9504 215,73.5C 215.759,74.6458 216.426,75.6458 217,76.5C 217.207,75.095 218.373,74.095 220.5,73.5 Z"/></g>
<g><path style="opacity:1" fill="#22335b" d="M 399.5,76.5 C 404.253,80.9174 408.253,85.9174 411.5,91.5C 410.001,92.494 408.334,92.494 406.5,91.5C 402.785,88.4519 399.452,85.1185 396.5,81.5C 396.611,80.8826 396.944,80.3826 397.5,80C 396.044,79.5774 395.544,78.7441 396,77.5C 397.209,77.3474 398.375,77.0141 399.5,76.5 Z"/></g>
<g><path style="opacity:1" fill="#44689a" d="M 239.5,77.5 C 242.221,77.9628 244.888,78.6295 247.5,79.5C 249.838,81.0395 252.505,81.7062 255.5,81.5C 255.842,82.3382 256.508,82.6716 257.5,82.5C 260.5,83.8333 263.5,85.1667 266.5,86.5C 257.945,85.7972 249.611,84.1306 241.5,81.5C 239.824,80.8166 239.157,79.4832 239.5,77.5 Z"/></g>
<g><path style="opacity:1" fill="#4d6e9f" d="M 266.5,79.5 C 271.179,79.3342 275.845,79.5008 280.5,80C 284.771,84.4309 289.604,85.2642 295,82.5C 295.833,82.8333 296.667,83.1667 297.5,83.5C 296.311,84.4287 294.978,84.762 293.5,84.5C 293.5,85.5 293.5,86.5 293.5,87.5C 284.418,84.8029 275.418,82.1362 266.5,79.5 Z"/></g>
<g><path style="opacity:1" fill="#fcecd4" d="M 330.5,84.5 C 332.833,85.1667 335.167,85.8333 337.5,86.5C 340.309,88.8966 343.642,90.2299 347.5,90.5C 347.833,91.1667 348.167,91.8333 348.5,92.5C 346.379,92.6747 344.379,92.3414 342.5,91.5C 338.815,89.9888 335.148,88.4888 331.5,87C 330.748,86.3292 330.414,85.4959 330.5,84.5 Z"/></g>
<g><path style="opacity:1" fill="#dfeaf1" d="M 295.5,74.5 C 302.322,76.3304 309.322,77.6637 316.5,78.5C 320.059,82.5914 324.726,84.5914 330.5,84.5C 330.414,85.4959 330.748,86.3292 331.5,87C 335.148,88.4888 338.815,89.9888 342.5,91.5C 344.58,93.387 346.914,95.0537 349.5,96.5C 347.708,96.634 346.042,96.3007 344.5,95.5C 344.167,95.5 343.833,95.5 343.5,95.5C 331.351,89.0969 318.685,83.7635 305.5,79.5C 302.038,78.1305 298.705,76.4639 295.5,74.5 Z"/></g>
<g><path style="opacity:1" fill="#d2915f" d="M 337.5,86.5 C 338.833,86.5 340.167,86.5 341.5,86.5C 343.364,88.0138 345.364,89.3472 347.5,90.5C 343.642,90.2299 340.309,88.8966 337.5,86.5 Z"/></g>
<g><path style="opacity:1" fill="#294e8d" d="M 306.5,83.5 C 308.844,85.7115 311.51,86.0448 314.5,84.5C 316.111,85.3202 316.778,86.6536 316.5,88.5C 328.035,90.4065 328.201,92.0731 317,93.5C 312.186,92.3478 307.686,91.1811 303.5,90C 302.672,89.0853 301.672,88.4186 300.5,88C 301.784,87.3162 302.951,87.4829 304,88.5C 304.464,87.9056 304.631,87.2389 304.5,86.5C 305.906,86.0269 306.573,85.0269 306.5,83.5 Z"/></g>
<g><path style="opacity:1" fill="#2e497a" d="M 305.5,79.5 C 318.685,83.7635 331.351,89.0969 343.5,95.5C 339.839,95.7102 336.339,95.0436 333,93.5C 330.576,94.5705 328.076,95.5705 325.5,96.5C 328.648,98.7409 331.982,100.408 335.5,101.5C 335.833,102.167 336.167,102.833 336.5,103.5C 321.982,98.5508 307.648,93.2175 293.5,87.5C 295.527,87.6621 297.527,87.4955 299.5,87C 301.447,84.574 303.114,84.4073 304.5,86.5C 304.631,87.2389 304.464,87.9056 304,88.5C 302.951,87.4829 301.784,87.3162 300.5,88C 301.672,88.4186 302.672,89.0853 303.5,90C 307.686,91.1811 312.186,92.3478 317,93.5C 328.201,92.0731 328.035,90.4065 316.5,88.5C 316.778,86.6536 316.111,85.3202 314.5,84.5C 311.51,86.0448 308.844,85.7115 306.5,83.5C 305.325,83.719 304.325,83.3857 303.5,82.5C 304.193,81.4822 304.859,80.4822 305.5,79.5 Z"/></g>
<g><path style="opacity:1" fill="#eeeceb" d="M 342.5,91.5 C 344.379,92.3414 346.379,92.6747 348.5,92.5C 349.5,92.5 350.5,92.5 351.5,92.5C 355.144,95.8194 359.477,97.8194 364.5,98.5C 366.147,100.326 368.147,101.66 370.5,102.5C 371.743,104.578 373.41,106.412 375.5,108C 377.167,108.333 378.833,108.667 380.5,109C 381.598,109.77 381.598,110.603 380.5,111.5C 369.7,107.265 359.366,102.265 349.5,96.5C 346.914,95.0537 344.58,93.387 342.5,91.5 Z"/></g>
<g><path style="opacity:1" fill="#3b68ab" d="M 241.5,81.5 C 249.611,84.1306 257.945,85.7972 266.5,86.5C 268.167,86.5 269.833,86.5 271.5,86.5C 276.167,88.5 280.833,90.5 285.5,92.5C 280.999,93.8057 276.499,93.8057 272,92.5C 254.276,100.609 235.943,106.609 217,110.5C 213.73,111.132 210.563,111.799 207.5,112.5C 201.974,112.179 196.64,112.512 191.5,113.5C 185.316,113.965 179.316,113.299 173.5,111.5C 173.635,109.446 172.968,107.779 171.5,106.5C 172.267,105.828 172.934,104.995 173.5,104C 187,99.4072 200.333,94.5739 213.5,89.5C 214.086,89.7093 214.586,90.0426 215,90.5C 223.537,86.4743 232.37,83.4743 241.5,81.5 Z"/></g>
<g><path style="opacity:1" fill="#bb6d4a" d="M 351.5,92.5 C 353.527,92.3379 355.527,92.5045 357.5,93C 360.241,94.4106 362.575,96.244 364.5,98.5C 359.477,97.8194 355.144,95.8194 351.5,92.5 Z"/></g>
<g><path style="opacity:1" fill="#303d52" d="M 406.5,91.5 C 408.334,92.494 410.001,92.494 411.5,91.5C 415.853,96.5266 419.853,101.86 423.5,107.5C 417.88,102.216 412.213,96.8829 406.5,91.5 Z"/></g>
<g><path style="opacity:1" fill="#2c4e87" d="M 287.5,92.5 C 293.744,94.4654 299.744,96.7987 305.5,99.5C 306.66,101.203 305.993,101.869 303.5,101.5C 299.981,100.821 296.481,99.8211 293,98.5C 287.16,98.6373 281.66,100.471 276.5,104C 271.349,105.205 266.349,106.871 261.5,109C 253.535,109.89 245.869,111.724 238.5,114.5C 238.291,115.086 237.957,115.586 237.5,116C 240.146,116.497 242.813,116.664 245.5,116.5C 245.918,117.222 246.584,117.722 247.5,118C 246.833,118.333 246.167,118.667 245.5,119C 247.058,119.21 248.391,119.71 249.5,120.5C 236.667,117.603 223.667,115.603 210.5,114.5C 204.355,113.51 198.022,113.177 191.5,113.5C 196.64,112.512 201.974,112.179 207.5,112.5C 218.072,112.542 228.405,112.542 238.5,112.5C 239.386,111.675 239.719,110.675 239.5,109.5C 251.313,107.427 262.979,104.094 274.5,99.5C 275.086,99.7093 275.586,100.043 276,100.5C 278.707,99.3849 281.207,98.0515 283.5,96.5C 285.766,95.6858 288.1,95.1858 290.5,95C 289.058,94.6232 288.058,93.7899 287.5,92.5 Z"/></g>
<g><path style="opacity:1" fill="#18346d" d="M 343.5,95.5 C 343.833,95.5 344.167,95.5 344.5,95.5C 344.649,96.552 344.483,97.552 344,98.5C 343.667,98.1667 343.333,97.8333 343,97.5C 341.011,99.8394 338.511,101.173 335.5,101.5C 331.982,100.408 328.648,98.7409 325.5,96.5C 328.076,95.5705 330.576,94.5705 333,93.5C 336.339,95.0436 339.839,95.7102 343.5,95.5 Z"/></g>
<g><path style="opacity:1" fill="#c28066" d="M 364.5,98.5 C 368.597,98.3778 371.597,100.044 373.5,103.5C 372.391,103.443 371.391,103.11 370.5,102.5C 368.147,101.66 366.147,100.326 364.5,98.5 Z"/></g>
<g><path style="opacity:1" fill="#c85026" d="M 380.5,83.5 C 383.163,85.3227 386.163,86.3227 389.5,86.5C 391.605,89.1529 393.605,91.9863 395.5,95C 392.315,96.8906 391.315,99.5573 392.5,103C 395.205,102.987 397.705,102.154 400,100.5C 402.359,101.116 403.859,102.616 404.5,105C 409.651,105.964 413.984,108.464 417.5,112.5C 414.789,114.743 414.956,116.743 418,118.5C 418.725,116.842 419.892,116.342 421.5,117C 425.349,120.161 429.515,122.995 434,125.5C 434.781,126.944 434.614,128.277 433.5,129.5C 430.34,127.973 427.007,127.307 423.5,127.5C 423.167,127.5 422.833,127.5 422.5,127.5C 422.461,126.417 422.127,125.417 421.5,124.5C 416.388,122.778 411.721,120.278 407.5,117C 404.986,115.748 402.32,115.248 399.5,115.5C 399.64,113.876 398.973,112.71 397.5,112C 395.19,111.503 392.857,111.337 390.5,111.5C 390.719,110.325 390.386,109.325 389.5,108.5C 384.809,105.748 379.809,104.081 374.5,103.5C 374.167,103.5 373.833,103.5 373.5,103.5C 371.597,100.044 368.597,98.3778 364.5,98.5C 362.575,96.244 360.241,94.4106 357.5,93C 355.527,92.5045 353.527,92.3379 351.5,92.5C 350.5,92.5 349.5,92.5 348.5,92.5C 348.167,91.8333 347.833,91.1667 347.5,90.5C 345.364,89.3472 343.364,88.0138 341.5,86.5C 346.425,87.6119 351.258,88.9452 356,90.5C 361.203,90.1028 366.37,89.4361 371.5,88.5C 371.833,87.5 372.5,86.8333 373.5,86.5C 375.432,87.5202 377.432,87.6869 379.5,87C 380.337,85.9887 380.67,84.8221 380.5,83.5 Z"/></g>
<g><path style="opacity:1" fill="#4b6790" d="M 159.5,97.5 C 161.179,97.8923 162.846,98.3923 164.5,99C 166.009,102.34 168.343,104.84 171.5,106.5C 172.968,107.779 173.635,109.446 173.5,111.5C 172.833,111.167 172.167,110.833 171.5,110.5C 167.444,106.115 163.444,101.781 159.5,97.5 Z"/></g>
<g><path style="opacity:1" fill="#1c3d74" d="M 297.5,104.5 C 298.263,105.268 299.263,105.768 300.5,106C 293.551,108.205 286.551,110.205 279.5,112C 276.898,112.977 274.398,114.144 272,115.5C 271.586,115.043 271.086,114.709 270.5,114.5C 267.03,115.988 263.53,117.321 260,118.5C 259.667,118.167 259.333,117.833 259,117.5C 257.271,117.974 256.105,118.974 255.5,120.5C 253.833,120.5 252.167,120.5 250.5,120.5C 250.167,120.5 249.833,120.5 249.5,120.5C 248.391,119.71 247.058,119.21 245.5,119C 246.167,118.667 246.833,118.333 247.5,118C 246.584,117.722 245.918,117.222 245.5,116.5C 249.878,114.434 254.545,113.268 259.5,113C 267.222,108.321 275.556,105.987 284.5,106C 285.025,106.692 285.692,107.192 286.5,107.5C 288.428,105.95 290.261,104.283 292,102.5C 293.948,103.109 295.782,103.776 297.5,104.5 Z"/></g>
<g><path style="opacity:1" fill="#b36043" d="M 374.5,103.5 C 379.809,104.081 384.809,105.748 389.5,108.5C 390.386,109.325 390.719,110.325 390.5,111.5C 385,109.01 379.667,106.344 374.5,103.5 Z"/></g>
<g><path style="opacity:1" fill="#2f5697" d="M 285.5,92.5 C 286.167,92.5 286.833,92.5 287.5,92.5C 288.058,93.7899 289.058,94.6232 290.5,95C 288.1,95.1858 285.766,95.6858 283.5,96.5C 281.207,98.0515 278.707,99.3849 276,100.5C 275.586,100.043 275.086,99.7093 274.5,99.5C 262.979,104.094 251.313,107.427 239.5,109.5C 239.719,110.675 239.386,111.675 238.5,112.5C 228.405,112.542 218.072,112.542 207.5,112.5C 210.563,111.799 213.73,111.132 217,110.5C 235.943,106.609 254.276,100.609 272,92.5C 276.499,93.8057 280.999,93.8057 285.5,92.5 Z"/></g>
<g><path style="opacity:1" fill="#959db8" d="M 340.5,105.5 C 342.967,105.755 344.967,106.755 346.5,108.5C 344.033,108.245 342.033,107.245 340.5,105.5 Z"/></g>
<g><path style="opacity:1" fill="#858ba5" d="M 348.5,108.5 C 350.027,108.427 351.027,109.094 351.5,110.5C 349.973,110.573 348.973,109.906 348.5,108.5 Z"/></g>
<g><path style="opacity:1" fill="#224582" d="M 303.5,101.5 C 303.5,102.833 303.5,104.167 303.5,105.5C 301.621,104.659 299.621,104.325 297.5,104.5C 295.782,103.776 293.948,103.109 292,102.5C 290.261,104.283 288.428,105.95 286.5,107.5C 285.692,107.192 285.025,106.692 284.5,106C 275.556,105.987 267.222,108.321 259.5,113C 254.545,113.268 249.878,114.434 245.5,116.5C 242.813,116.664 240.146,116.497 237.5,116C 237.957,115.586 238.291,115.086 238.5,114.5C 245.869,111.724 253.535,109.89 261.5,109C 266.349,106.871 271.349,105.205 276.5,104C 281.66,100.471 287.16,98.6373 293,98.5C 296.481,99.8211 299.981,100.821 303.5,101.5 Z"/></g>
<g><path style="opacity:1" fill="#e9f1f5" d="M 203.5,66.5 C 210.157,67.2605 216.823,67.9271 223.5,68.5C 237.839,71.9425 252.172,75.6092 266.5,79.5C 275.418,82.1362 284.418,84.8029 293.5,87.5C 307.648,93.2175 321.982,98.5508 336.5,103.5C 337.833,104.167 339.167,104.833 340.5,105.5C 342.033,107.245 344.033,108.245 346.5,108.5C 347.167,108.5 347.833,108.5 348.5,108.5C 348.973,109.906 349.973,110.573 351.5,110.5C 371.673,119.416 392.006,128.083 412.5,136.5C 419.04,140.018 425.707,143.351 432.5,146.5C 434.129,148.196 433.796,149.196 431.5,149.5C 413.759,142.466 396.092,135.133 378.5,127.5C 376.165,124.835 373.165,123.502 369.5,123.5C 363.309,121.549 357.309,119.216 351.5,116.5C 349.824,114.166 347.491,113.166 344.5,113.5C 331.909,107.841 318.909,103.174 305.5,99.5C 299.744,96.7987 293.744,94.4654 287.5,92.5C 286.833,92.5 286.167,92.5 285.5,92.5C 280.833,90.5 276.167,88.5 271.5,86.5C 267.097,84.5922 262.43,83.2589 257.5,82.5C 256.508,82.6716 255.842,82.3382 255.5,81.5C 253.095,80.2318 250.428,79.5651 247.5,79.5C 244.888,78.6295 242.221,77.9628 239.5,77.5C 238.833,77.5 238.167,77.5 237.5,77.5C 232.054,75.7234 226.387,74.3901 220.5,73.5C 216.127,72.6566 211.793,71.6566 207.5,70.5C 205.304,69.1881 202.97,68.0214 200.5,67C 201.448,66.5172 202.448,66.3505 203.5,66.5 Z"/></g>
<g><path style="opacity:1" fill="#0f2759" d="M 305.5,99.5 C 318.909,103.174 331.909,107.841 344.5,113.5C 346.509,115.065 348.843,116.065 351.5,116.5C 357.309,119.216 363.309,121.549 369.5,123.5C 372.088,125.592 375.088,126.925 378.5,127.5C 396.092,135.133 413.759,142.466 431.5,149.5C 431.5,149.833 431.5,150.167 431.5,150.5C 430.189,153.133 428.689,153.133 427,150.5C 425.381,151.083 423.548,151.083 421.5,150.5C 420.856,152.843 418.856,153.843 415.5,153.5C 415.167,153.5 414.833,153.5 414.5,153.5C 410.263,149.898 405.263,148.231 399.5,148.5C 399.5,147.5 399.5,146.5 399.5,145.5C 394.833,145.5 390.167,145.5 385.5,145.5C 382.833,145.167 380.167,144.833 377.5,144.5C 376.833,144.5 376.167,144.5 375.5,144.5C 367.708,141.747 359.708,139.414 351.5,137.5C 351.119,136.069 350.119,135.236 348.5,135C 336.142,134.016 323.809,132.849 311.5,131.5C 311.5,130.5 311.5,129.5 311.5,128.5C 300.263,128.262 288.93,127.928 277.5,127.5C 276.167,127.5 274.833,127.5 273.5,127.5C 272.508,127.672 271.842,127.338 271.5,126.5C 269.5,125.5 267.5,124.5 265.5,123.5C 267.262,123.357 268.929,123.691 270.5,124.5C 271.429,123.311 271.762,121.978 271.5,120.5C 267.421,120.331 266.921,119.331 270,117.5C 272.875,120.486 275.875,120.819 279,118.5C 280.613,119.622 281.78,119.122 282.5,117C 289.463,115.284 296.463,113.784 303.5,112.5C 303.351,111.448 303.517,110.448 304,109.5C 304.333,109.833 304.667,110.167 305,110.5C 308.831,109.575 312.331,108.075 315.5,106C 314.975,105.308 314.308,104.808 313.5,104.5C 310.32,104.433 306.987,104.766 303.5,105.5C 303.5,104.167 303.5,102.833 303.5,101.5C 305.993,101.869 306.66,101.203 305.5,99.5 Z"/></g>
<g><path style="opacity:1" fill="#dde4ee" d="M 380.5,111.5 C 385.7,112.251 390.7,113.918 395.5,116.5C 396.386,117.325 396.719,118.325 396.5,119.5C 390.849,117.341 385.516,114.674 380.5,111.5 Z"/></g>
<g><path style="opacity:1" fill="#faeae2" d="M 383.5,81.5 C 385.199,81.3398 386.866,81.5065 388.5,82C 391.349,85.2365 394.349,88.2365 397.5,91C 399.618,92.1425 401.618,92.6425 403.5,92.5C 404.782,94.1792 405.782,96.0126 406.5,98C 411.796,101.33 416.796,105.163 421.5,109.5C 422.086,109.291 422.586,108.957 423,108.5C 423.949,110.093 425.115,111.426 426.5,112.5C 427.919,113.451 429.585,113.784 431.5,113.5C 430.629,116.272 430.629,118.938 431.5,121.5C 418.084,109.08 404.084,97.4132 389.5,86.5C 387.5,84.8333 385.5,83.1667 383.5,81.5 Z"/></g>
<g><path style="opacity:1" fill="#647e9f" d="M 173.5,111.5 C 179.316,113.299 185.316,113.965 191.5,113.5C 198.022,113.177 204.355,113.51 210.5,114.5C 200.646,114.288 190.813,114.621 181,115.5C 177.429,116.081 174.929,114.748 173.5,111.5 Z"/></g>
<g><path style="opacity:1" fill="#16326a" d="M 297.5,104.5 C 299.621,104.325 301.621,104.659 303.5,105.5C 306.987,104.766 310.32,104.433 313.5,104.5C 314.308,104.808 314.975,105.308 315.5,106C 312.331,108.075 308.831,109.575 305,110.5C 304.667,110.167 304.333,109.833 304,109.5C 303.517,110.448 303.351,111.448 303.5,112.5C 296.463,113.784 289.463,115.284 282.5,117C 281.78,119.122 280.613,119.622 279,118.5C 275.875,120.819 272.875,120.486 270,117.5C 266.921,119.331 267.421,120.331 271.5,120.5C 271.762,121.978 271.429,123.311 270.5,124.5C 268.929,123.691 267.262,123.357 265.5,123.5C 262.264,122.135 258.931,121.135 255.5,120.5C 256.105,118.974 257.271,117.974 259,117.5C 259.333,117.833 259.667,118.167 260,118.5C 263.53,117.321 267.03,115.988 270.5,114.5C 271.086,114.709 271.586,115.043 272,115.5C 274.398,114.144 276.898,112.977 279.5,112C 286.551,110.205 293.551,108.205 300.5,106C 299.263,105.768 298.263,105.268 297.5,104.5 Z"/></g>
<g><path style="opacity:1" fill="#a1aebc" d="M 344.5,113.5 C 347.491,113.166 349.824,114.166 351.5,116.5C 348.843,116.065 346.509,115.065 344.5,113.5 Z"/></g>
<g><path style="opacity:1" fill="#b26445" d="M 390.5,111.5 C 392.857,111.337 395.19,111.503 397.5,112C 398.973,112.71 399.64,113.876 399.5,115.5C 396.088,114.958 393.088,113.625 390.5,111.5 Z"/></g>
<g><path style="opacity:1" fill="#364465" d="M 250.5,120.5 C 252.167,120.5 253.833,120.5 255.5,120.5C 258.931,121.135 262.264,122.135 265.5,123.5C 267.5,124.5 269.5,125.5 271.5,126.5C 264.273,124.947 257.273,122.947 250.5,120.5 Z"/></g>
<g><path style="opacity:1" fill="#b55f3e" d="M 399.5,115.5 C 402.32,115.248 404.986,115.748 407.5,117C 411.721,120.278 416.388,122.778 421.5,124.5C 422.127,125.417 422.461,126.417 422.5,127.5C 414.711,123.772 407.044,119.772 399.5,115.5 Z"/></g>
<g><path style="opacity:1" fill="#1e3d78" d="M 199.5,121.5 C 203.394,121.11 207.06,121.777 210.5,123.5C 206.613,125.276 202.613,126.776 198.5,128C 198.833,128.333 199.167,128.667 199.5,129C 196.843,129.175 194.176,129.008 191.5,128.5C 191.715,130.179 191.048,131.179 189.5,131.5C 188.602,130.842 187.602,130.176 186.5,129.5C 187.025,128.808 187.692,128.308 188.5,128C 188.167,127.667 187.833,127.333 187.5,127C 188.793,126.51 190.127,126.343 191.5,126.5C 191.5,124.833 191.5,123.167 191.5,121.5C 194.167,121.5 196.833,121.5 199.5,121.5 Z"/></g>
<g><path style="opacity:1" fill="#a7afc3" d="M 369.5,123.5 C 373.165,123.502 376.165,124.835 378.5,127.5C 375.088,126.925 372.088,125.592 369.5,123.5 Z"/></g>
<g><path style="opacity:1" fill="#27497e" d="M 215.5,119.5 C 223.678,120.419 231.678,121.752 239.5,123.5C 234.13,123.608 228.797,123.275 223.5,122.5C 223.5,123.5 223.5,124.5 223.5,125.5C 219.505,124.883 216.172,126.049 213.5,129C 209.209,130.178 204.876,131.178 200.5,132C 201.416,132.278 202.082,132.778 202.5,133.5C 198.833,133.5 195.167,133.5 191.5,133.5C 189.031,132.683 186.365,132.183 183.5,132C 185.473,131.505 187.473,131.338 189.5,131.5C 191.048,131.179 191.715,130.179 191.5,128.5C 194.176,129.008 196.843,129.175 199.5,129C 199.167,128.667 198.833,128.333 198.5,128C 202.613,126.776 206.613,125.276 210.5,123.5C 207.06,121.777 203.394,121.11 199.5,121.5C 204.833,120.833 210.167,120.167 215.5,119.5 Z"/></g>
<g><path style="opacity:1" fill="#667089" d="M 273.5,127.5 C 274.833,127.5 276.167,127.5 277.5,127.5C 279.5,128.5 281.5,129.5 283.5,130.5C 279.838,130.277 276.505,129.277 273.5,127.5 Z"/></g>
<g><path style="opacity:1" fill="#1e3563" d="M 207.5,118.5 C 210.096,119.265 212.763,119.599 215.5,119.5C 210.167,120.167 204.833,120.833 199.5,121.5C 196.833,121.5 194.167,121.5 191.5,121.5C 191.5,123.167 191.5,124.833 191.5,126.5C 190.127,126.343 188.793,126.51 187.5,127C 187.833,127.333 188.167,127.667 188.5,128C 187.692,128.308 187.025,128.808 186.5,129.5C 187.602,130.176 188.602,130.842 189.5,131.5C 187.473,131.338 185.473,131.505 183.5,132C 186.365,132.183 189.031,132.683 191.5,133.5C 185.974,133.179 180.64,133.512 175.5,134.5C 174.833,134.5 174.167,134.5 173.5,134.5C 168.699,134.35 164.033,135.016 159.5,136.5C 161.944,134.928 164.61,133.428 167.5,132C 170.234,131.79 172.734,130.956 175,129.5C 175.414,129.957 175.914,130.291 176.5,130.5C 177.354,129.478 178.354,128.645 179.5,128C 178.062,127.781 176.729,127.281 175.5,126.5C 176.025,125.808 176.692,125.308 177.5,125C 172.02,124.361 166.687,125.028 161.5,127C 165.269,127.766 165.102,128.599 161,129.5C 158.744,127.915 156.244,127.248 153.5,127.5C 155.684,125.415 158.351,124.415 161.5,124.5C 164.397,123.871 167.064,122.871 169.5,121.5C 171.265,120.539 173.265,120.205 175.5,120.5C 186.097,118.903 196.764,118.237 207.5,118.5 Z"/></g>
<g><path style="opacity:1" fill="#496c9e" d="M 239.5,123.5 C 251.154,125.725 262.487,128.725 273.5,132.5C 272.833,132.5 272.167,132.5 271.5,132.5C 263.848,131.369 256.181,130.369 248.5,129.5C 248.577,128.25 249.244,127.417 250.5,127C 246.373,126.52 242.707,125.354 239.5,123.5 Z"/></g>
<g><path style="opacity:1" fill="#162a54" d="M 277.5,127.5 C 288.93,127.928 300.263,128.262 311.5,128.5C 311.5,129.5 311.5,130.5 311.5,131.5C 323.809,132.849 336.142,134.016 348.5,135C 350.119,135.236 351.119,136.069 351.5,137.5C 344.613,135.918 337.613,135.252 330.5,135.5C 314.684,133.88 299.017,132.213 283.5,130.5C 281.5,129.5 279.5,128.5 277.5,127.5 Z"/></g>
<g><path style="opacity:1" fill="#152956" d="M 344.5,95.5 C 346.042,96.3007 347.708,96.634 349.5,96.5C 359.366,102.265 369.7,107.265 380.5,111.5C 385.516,114.674 390.849,117.341 396.5,119.5C 403.374,123.437 410.374,127.103 417.5,130.5C 415.952,130.821 415.285,131.821 415.5,133.5C 412.506,133.146 411.506,134.146 412.5,136.5C 392.006,128.083 371.673,119.416 351.5,110.5C 351.027,109.094 350.027,108.427 348.5,108.5C 347.833,108.5 347.167,108.5 346.5,108.5C 344.967,106.755 342.967,105.755 340.5,105.5C 339.167,104.833 337.833,104.167 336.5,103.5C 336.167,102.833 335.833,102.167 335.5,101.5C 338.511,101.173 341.011,99.8394 343,97.5C 343.333,97.8333 343.667,98.1667 344,98.5C 344.483,97.552 344.649,96.552 344.5,95.5 Z"/></g>
<g><path style="opacity:1" fill="#bd5632" d="M 389.5,86.5 C 404.084,97.4132 418.084,109.08 431.5,121.5C 433.833,123.167 435.833,125.167 437.5,127.5C 438.259,129.436 439.259,131.269 440.5,133C 440.167,133.5 439.833,134 439.5,134.5C 436.141,132.32 432.474,130.987 428.5,130.5C 426.632,129.737 424.965,128.737 423.5,127.5C 427.007,127.307 430.34,127.973 433.5,129.5C 434.614,128.277 434.781,126.944 434,125.5C 429.515,122.995 425.349,120.161 421.5,117C 419.892,116.342 418.725,116.842 418,118.5C 414.956,116.743 414.789,114.743 417.5,112.5C 413.984,108.464 409.651,105.964 404.5,105C 403.859,102.616 402.359,101.116 400,100.5C 397.705,102.154 395.205,102.987 392.5,103C 391.315,99.5573 392.315,96.8906 395.5,95C 393.605,91.9863 391.605,89.1529 389.5,86.5 Z"/></g>
<g><path style="opacity:1" fill="#335b9c" d="M 239.5,123.5 C 242.707,125.354 246.373,126.52 250.5,127C 249.244,127.417 248.577,128.25 248.5,129.5C 246.116,129.443 243.782,129.777 241.5,130.5C 235.151,134.837 228.151,136.503 220.5,135.5C 214.732,133.703 208.732,133.036 202.5,133.5C 202.082,132.778 201.416,132.278 200.5,132C 204.876,131.178 209.209,130.178 213.5,129C 216.172,126.049 219.505,124.883 223.5,125.5C 223.5,124.5 223.5,123.5 223.5,122.5C 228.797,123.275 234.13,123.608 239.5,123.5 Z"/></g>
<g><path style="opacity:1" fill="#e3edf4" d="M 171.5,110.5 C 172.167,110.833 172.833,111.167 173.5,111.5C 174.929,114.748 177.429,116.081 181,115.5C 190.813,114.621 200.646,114.288 210.5,114.5C 223.667,115.603 236.667,117.603 249.5,120.5C 249.833,120.5 250.167,120.5 250.5,120.5C 257.273,122.947 264.273,124.947 271.5,126.5C 271.842,127.338 272.508,127.672 273.5,127.5C 276.505,129.277 279.838,130.277 283.5,130.5C 299.017,132.213 314.684,133.88 330.5,135.5C 334.881,136.257 339.214,137.257 343.5,138.5C 335.946,137.952 328.446,136.952 321,135.5C 315.521,136.228 310.021,136.062 304.5,135C 304,134.5 303.5,134 303,133.5C 299.924,134.288 296.758,134.788 293.5,135C 295.7,137.046 298.367,138.046 301.5,138C 303.041,139.371 304.375,140.871 305.5,142.5C 304.833,142.5 304.167,142.5 303.5,142.5C 301.401,141.388 299.067,140.721 296.5,140.5C 289.199,137.028 281.532,134.361 273.5,132.5C 262.487,128.725 251.154,125.725 239.5,123.5C 231.678,121.752 223.678,120.419 215.5,119.5C 212.763,119.599 210.096,119.265 207.5,118.5C 200.011,117.344 192.345,117.178 184.5,118C 181.203,118.204 178.203,119.037 175.5,120.5C 173.265,120.205 171.265,120.539 169.5,121.5C 166.284,121.345 163.617,122.345 161.5,124.5C 158.351,124.415 155.684,125.415 153.5,127.5C 153.167,127.5 152.833,127.5 152.5,127.5C 152.167,127.5 151.833,127.5 151.5,127.5C 152.525,125.799 154.025,124.465 156,123.5C 162.271,120.909 168.771,119.242 175.5,118.5C 175.649,117.448 175.483,116.448 175,115.5C 174.667,115.833 174.333,116.167 174,116.5C 171.238,115.012 170.404,113.012 171.5,110.5 Z"/></g>
<g><path style="opacity:1" fill="#6a798e" d="M 169.5,121.5 C 167.064,122.871 164.397,123.871 161.5,124.5C 163.617,122.345 166.284,121.345 169.5,121.5 Z"/></g>
<g><path style="opacity:1" fill="#c2cfdd" d="M 207.5,118.5 C 196.764,118.237 186.097,118.903 175.5,120.5C 178.203,119.037 181.203,118.204 184.5,118C 192.345,117.178 200.011,117.344 207.5,118.5 Z"/></g>
<g><path style="opacity:1" fill="#768ca3" d="M 420.5,131.5 C 422.027,131.427 423.027,132.094 423.5,133.5C 421.973,133.573 420.973,132.906 420.5,131.5 Z"/></g>
<g><path style="opacity:1" fill="#3c68ab" d="M 248.5,129.5 C 256.181,130.369 263.848,131.369 271.5,132.5C 271.5,133.5 271.5,134.5 271.5,135.5C 269.533,135.739 267.699,135.406 266,134.5C 265.283,135.044 264.783,135.711 264.5,136.5C 260.471,137.179 256.305,137.179 252,136.5C 249.755,137.137 247.588,137.97 245.5,139C 249.009,139.422 252.343,140.422 255.5,142C 253.115,142.556 250.782,142.39 248.5,141.5C 238.751,140.502 229.418,138.502 220.5,135.5C 228.151,136.503 235.151,134.837 241.5,130.5C 243.782,129.777 246.116,129.443 248.5,129.5 Z"/></g>
<g><path style="opacity:1" fill="#f9e7da" d="M 370.5,102.5 C 371.391,103.11 372.391,103.443 373.5,103.5C 373.833,103.5 374.167,103.5 374.5,103.5C 379.667,106.344 385,109.01 390.5,111.5C 393.088,113.625 396.088,114.958 399.5,115.5C 407.044,119.772 414.711,123.772 422.5,127.5C 422.833,127.5 423.167,127.5 423.5,127.5C 424.965,128.737 426.632,129.737 428.5,130.5C 434.045,134.103 439.712,137.437 445.5,140.5C 441.675,139.926 438.009,138.759 434.5,137C 424.305,131.803 414.305,126.47 404.5,121C 401.937,119.921 399.271,119.421 396.5,119.5C 396.719,118.325 396.386,117.325 395.5,116.5C 390.7,113.918 385.7,112.251 380.5,111.5C 381.598,110.603 381.598,109.77 380.5,109C 378.833,108.667 377.167,108.333 375.5,108C 373.41,106.412 371.743,104.578 370.5,102.5 Z"/></g>
<g><path style="opacity:1" fill="#b56346" d="M 437.5,127.5 C 439.5,129.167 441.5,130.833 443.5,132.5C 444.833,134.167 446.167,135.833 447.5,137.5C 447.5,138.5 447.5,139.5 447.5,140.5C 446.833,140.5 446.167,140.5 445.5,140.5C 439.712,137.437 434.045,134.103 428.5,130.5C 432.474,130.987 436.141,132.32 439.5,134.5C 439.833,134 440.167,133.5 440.5,133C 439.259,131.269 438.259,129.436 437.5,127.5 Z"/></g>
<g><path style="opacity:1" fill="#112858" d="M 159.5,136.5 C 159.5,136.833 159.5,137.167 159.5,137.5C 153.19,138.495 147.524,140.828 142.5,144.5C 141.167,144.833 139.833,145.167 138.5,145.5C 136.139,145.674 133.806,146.007 131.5,146.5C 131.872,142.957 133.872,140.79 137.5,140C 138.743,138.846 139.743,137.512 140.5,136C 142.167,135.667 143.833,135.333 145.5,135C 146.877,132.692 148.877,131.192 151.5,130.5C 152.386,129.675 152.719,128.675 152.5,127.5C 152.833,127.5 153.167,127.5 153.5,127.5C 156.244,127.248 158.744,127.915 161,129.5C 165.102,128.599 165.269,127.766 161.5,127C 166.687,125.028 172.02,124.361 177.5,125C 176.692,125.308 176.025,125.808 175.5,126.5C 176.729,127.281 178.062,127.781 179.5,128C 178.354,128.645 177.354,129.478 176.5,130.5C 175.914,130.291 175.414,129.957 175,129.5C 172.734,130.956 170.234,131.79 167.5,132C 164.61,133.428 161.944,134.928 159.5,136.5 Z"/></g>
<g><path style="opacity:1" fill="#79889f" d="M 173.5,134.5 C 168.95,135.491 164.283,136.491 159.5,137.5C 159.5,137.167 159.5,136.833 159.5,136.5C 164.033,135.016 168.699,134.35 173.5,134.5 Z"/></g>
<g><path style="opacity:1" fill="#e0e8f1" d="M 143.5,131.5 C 135.861,137.139 129.194,143.806 123.5,151.5C 119.748,155.345 116.748,159.678 114.5,164.5C 115.413,162.914 115.413,161.414 114.5,160C 116.689,159.323 117.022,158.156 115.5,156.5C 116.522,155.646 117.355,154.646 118,153.5C 118.333,153.833 118.667,154.167 119,154.5C 119.333,153.167 119.667,151.833 120,150.5C 123.011,147.988 125.844,145.322 128.5,142.5C 129.246,141.264 129.579,139.93 129.5,138.5C 133.432,137.923 136.765,135.423 139.5,131C 140.928,130.421 142.262,130.588 143.5,131.5 Z"/></g>
<g><path style="opacity:1" fill="#546c94" d="M 175.5,134.5 C 180.64,133.512 185.974,133.179 191.5,133.5C 195.167,133.5 198.833,133.5 202.5,133.5C 208.732,133.036 214.732,133.703 220.5,135.5C 229.418,138.502 238.751,140.502 248.5,141.5C 252.65,143.09 256.983,144.757 261.5,146.5C 262.167,147.167 262.833,147.833 263.5,148.5C 244.258,142.417 224.591,137.917 204.5,135C 194.839,134.5 185.172,134.334 175.5,134.5 Z"/></g>
<g><path style="opacity:1" fill="#303f5d" d="M 330.5,135.5 C 337.613,135.252 344.613,135.918 351.5,137.5C 359.708,139.414 367.708,141.747 375.5,144.5C 364.855,142.371 354.188,140.371 343.5,138.5C 339.214,137.257 334.881,136.257 330.5,135.5 Z"/></g>
<g><path style="opacity:1" fill="#2b4c80" d="M 271.5,132.5 C 272.167,132.5 272.833,132.5 273.5,132.5C 281.532,134.361 289.199,137.028 296.5,140.5C 296.5,140.833 296.5,141.167 296.5,141.5C 291.149,142.441 285.815,142.441 280.5,141.5C 277.53,142.426 274.53,143.092 271.5,143.5C 272.335,142.057 273.668,141.057 275.5,140.5C 275.333,140.167 275.167,139.833 275,139.5C 271.487,138.179 267.987,137.179 264.5,136.5C 264.783,135.711 265.283,135.044 266,134.5C 267.699,135.406 269.533,135.739 271.5,135.5C 271.5,134.5 271.5,133.5 271.5,132.5 Z"/></g>
<g><path style="opacity:1" fill="#cdd9e4" d="M 159.5,137.5 C 156.443,138.697 153.776,140.53 151.5,143C 148.456,143.363 145.456,143.863 142.5,144.5C 147.524,140.828 153.19,138.495 159.5,137.5 Z"/></g>
<g><path style="opacity:1" fill="#1e417c" d="M 296.5,141.5 C 297.043,141.56 297.376,141.893 297.5,142.5C 294.849,144.816 292.182,147.149 289.5,149.5C 288.914,149.291 288.414,148.957 288,148.5C 286.333,149.833 284.667,151.167 283,152.5C 282.329,151.748 281.496,151.414 280.5,151.5C 277.088,150.925 274.088,149.592 271.5,147.5C 271.5,146.167 271.5,144.833 271.5,143.5C 274.53,143.092 277.53,142.426 280.5,141.5C 285.815,142.441 291.149,142.441 296.5,141.5 Z"/></g>
<g><path style="opacity:1" fill="#163368" d="M 296.5,141.5 C 296.5,141.167 296.5,140.833 296.5,140.5C 299.067,140.721 301.401,141.388 303.5,142.5C 304.625,144 305.959,145.333 307.5,146.5C 304.741,146.933 303.408,148.6 303.5,151.5C 300.482,151.335 297.482,151.502 294.5,152C 295.634,153.016 295.301,153.683 293.5,154C 295.878,154.974 295.544,155.641 292.5,156C 294.373,156.953 294.706,158.12 293.5,159.5C 292.833,159.5 292.167,159.5 291.5,159.5C 291.703,157.61 291.037,156.11 289.5,155C 285.958,154.879 282.958,153.713 280.5,151.5C 281.496,151.414 282.329,151.748 283,152.5C 284.667,151.167 286.333,149.833 288,148.5C 288.414,148.957 288.914,149.291 289.5,149.5C 292.182,147.149 294.849,144.816 297.5,142.5C 297.376,141.893 297.043,141.56 296.5,141.5 Z"/></g>
<g><path style="opacity:1" fill="#616e87" d="M 377.5,144.5 C 380.167,144.833 382.833,145.167 385.5,145.5C 385.5,145.833 385.5,146.167 385.5,146.5C 382.505,146.706 379.838,146.04 377.5,144.5 Z"/></g>
<g><path style="opacity:1" fill="#f5f8f9" d="M 173.5,134.5 C 174.167,134.5 174.833,134.5 175.5,134.5C 185.172,134.334 194.839,134.5 204.5,135C 224.591,137.917 244.258,142.417 263.5,148.5C 269.791,151.156 276.124,153.823 282.5,156.5C 285.327,157.958 288.327,158.958 291.5,159.5C 305.871,166.012 320.538,172.012 335.5,177.5C 337.948,179.284 340.615,180.617 343.5,181.5C 339.784,180.681 336.118,180.681 332.5,181.5C 331.167,180.833 329.833,180.167 328.5,179.5C 328.55,180.848 328.217,182.348 327.5,184C 323.974,185.337 320.308,185.837 316.5,185.5C 317.952,184.698 319.618,184.198 321.5,184C 300.907,181.3 281.574,175.134 263.5,165.5C 261.316,163.415 258.649,162.415 255.5,162.5C 253.901,160.691 251.901,159.358 249.5,158.5C 247.955,157.548 246.288,157.215 244.5,157.5C 237.516,154.838 230.516,152.171 223.5,149.5C 220.381,148.13 217.048,147.13 213.5,146.5C 211.064,145.129 208.397,144.129 205.5,143.5C 205.196,142.85 204.863,142.183 204.5,141.5C 195.008,140.178 185.675,140.178 176.5,141.5C 173.848,141.41 171.515,142.076 169.5,143.5C 159.133,147.019 150.466,153.019 143.5,161.5C 140.577,163.561 138.744,166.228 138,169.5C 140.063,167.266 142.229,165.266 144.5,163.5C 146.372,161.396 148.705,160.063 151.5,159.5C 149,161.655 146.667,163.988 144.5,166.5C 143.851,168.624 143.017,170.624 142,172.5C 140.467,172.056 138.967,171.723 137.5,171.5C 131.811,174.332 131.311,173.666 136,169.5C 136,165.806 137.5,162.973 140.5,161C 140.167,160.667 139.833,160.333 139.5,160C 140.793,159.51 142.127,159.343 143.5,159.5C 143.828,156.996 145.162,155.162 147.5,154C 147.221,151.754 146.887,149.254 146.5,146.5C 143.345,146.605 140.678,147.772 138.5,150C 138.833,150.333 139.167,150.667 139.5,151C 135.425,150.536 132.425,152.369 130.5,156.5C 129.808,155.975 129.308,155.308 129,154.5C 128.329,155.252 127.496,155.586 126.5,155.5C 126.5,155.167 126.5,154.833 126.5,154.5C 130.538,151.488 134.538,148.488 138.5,145.5C 139.833,145.167 141.167,144.833 142.5,144.5C 145.456,143.863 148.456,143.363 151.5,143C 153.776,140.53 156.443,138.697 159.5,137.5C 164.283,136.491 168.95,135.491 173.5,134.5 Z"/></g>
<g><path style="opacity:1" fill="#97a3b4" d="M 176.5,141.5 C 174.485,142.924 172.152,143.59 169.5,143.5C 171.515,142.076 173.848,141.41 176.5,141.5 Z"/></g>
<g><path style="opacity:1" fill="#c5d6e6" d="M 176.5,141.5 C 185.675,140.178 195.008,140.178 204.5,141.5C 204.863,142.183 205.196,142.85 205.5,143.5C 204.167,143.5 202.833,143.5 201.5,143.5C 200.048,142.698 198.382,142.198 196.5,142C 189.842,141.5 183.175,141.334 176.5,141.5 Z"/></g>
<g><path style="opacity:1" fill="#2e5696" d="M 264.5,136.5 C 267.987,137.179 271.487,138.179 275,139.5C 275.167,139.833 275.333,140.167 275.5,140.5C 273.668,141.057 272.335,142.057 271.5,143.5C 271.5,144.833 271.5,146.167 271.5,147.5C 268.167,147.167 264.833,146.833 261.5,146.5C 256.983,144.757 252.65,143.09 248.5,141.5C 250.782,142.39 253.115,142.556 255.5,142C 252.343,140.422 249.009,139.422 245.5,139C 247.588,137.97 249.755,137.137 252,136.5C 256.305,137.179 260.471,137.179 264.5,136.5 Z"/></g>
<g><path style="opacity:1" fill="#1d2f52" d="M 385.5,146.5 C 385.5,146.167 385.5,145.833 385.5,145.5C 390.167,145.5 394.833,145.5 399.5,145.5C 399.5,146.5 399.5,147.5 399.5,148.5C 405.263,148.231 410.263,149.898 414.5,153.5C 404.784,151.291 395.118,148.958 385.5,146.5 Z"/></g>
<g><path style="opacity:1" fill="#ebebed" d="M 396.5,119.5 C 399.271,119.421 401.937,119.921 404.5,121C 414.305,126.47 424.305,131.803 434.5,137C 438.009,138.759 441.675,139.926 445.5,140.5C 446.167,140.5 446.833,140.5 447.5,140.5C 449.253,142.399 451.253,143.065 453.5,142.5C 451.509,140.836 449.509,139.169 447.5,137.5C 446.167,135.833 444.833,134.167 443.5,132.5C 446.307,133.577 449.14,134.577 452,135.5C 452.227,138.06 453.56,139.726 456,140.5C 457.392,143.549 457.892,146.549 457.5,149.5C 455.784,149.371 454.117,149.038 452.5,148.5C 452.027,147.094 451.027,146.427 449.5,146.5C 440.55,142.692 431.883,138.358 423.5,133.5C 423.027,132.094 422.027,131.427 420.5,131.5C 419.391,131.443 418.391,131.11 417.5,130.5C 410.374,127.103 403.374,123.437 396.5,119.5 Z"/></g>
<g><path style="opacity:1" fill="#a67f76" d="M 447.5,137.5 C 449.509,139.169 451.509,140.836 453.5,142.5C 451.253,143.065 449.253,142.399 447.5,140.5C 447.5,139.5 447.5,138.5 447.5,137.5 Z"/></g>
<g><path style="opacity:1" fill="#284883" d="M 186.5,143.5 C 185.737,144.268 184.737,144.768 183.5,145C 187.5,145.667 187.5,146.333 183.5,147C 184.833,147.333 186.167,147.667 187.5,148C 183.312,148.176 179.312,148.676 175.5,149.5C 169.031,148.948 169.031,147.948 175.5,146.5C 175.5,145.5 175.5,144.5 175.5,143.5C 179.167,143.5 182.833,143.5 186.5,143.5 Z"/></g>
<g><path style="opacity:1" fill="#192b51" d="M 151.5,127.5 C 151.833,127.5 152.167,127.5 152.5,127.5C 152.719,128.675 152.386,129.675 151.5,130.5C 148.877,131.192 146.877,132.692 145.5,135C 143.833,135.333 142.167,135.667 140.5,136C 139.743,137.512 138.743,138.846 137.5,140C 133.872,140.79 131.872,142.957 131.5,146.5C 133.806,146.007 136.139,145.674 138.5,145.5C 134.538,148.488 130.538,151.488 126.5,154.5C 125.5,154.5 124.5,154.5 123.5,154.5C 123.5,153.5 123.5,152.5 123.5,151.5C 129.194,143.806 135.861,137.139 143.5,131.5C 146.45,130.692 149.117,129.358 151.5,127.5 Z"/></g>
<g><path style="opacity:1" fill="#8291a3" d="M 449.5,146.5 C 451.027,146.427 452.027,147.094 452.5,148.5C 450.973,148.573 449.973,147.906 449.5,146.5 Z"/></g>
<g><path style="opacity:1" fill="#39609c" d="M 201.5,143.5 C 202.833,143.5 204.167,143.5 205.5,143.5C 208.397,144.129 211.064,145.129 213.5,146.5C 213.062,146.435 212.728,146.601 212.5,147C 217.694,148.249 217.694,149.749 212.5,151.5C 209.579,152.407 206.579,152.74 203.5,152.5C 202.833,152.5 202.167,152.5 201.5,152.5C 200.942,151.21 199.942,150.377 198.5,150C 190.841,149.5 183.174,149.334 175.5,149.5C 179.312,148.676 183.312,148.176 187.5,148C 186.167,147.667 184.833,147.333 183.5,147C 187.5,146.333 187.5,145.667 183.5,145C 184.737,144.768 185.737,144.268 186.5,143.5C 191.423,143.038 196.423,143.038 201.5,143.5 Z"/></g>
<g><path style="opacity:1" fill="#647ea1" d="M 175.5,150.5 C 175.5,150.167 175.5,149.833 175.5,149.5C 183.174,149.334 190.841,149.5 198.5,150C 199.942,150.377 200.942,151.21 201.5,152.5C 193.04,150.665 184.373,149.998 175.5,150.5 Z"/></g>
<g><path style="opacity:1" fill="#2b4675" d="M 213.5,146.5 C 217.048,147.13 220.381,148.13 223.5,149.5C 223.5,149.833 223.5,150.167 223.5,150.5C 222.127,150.343 220.793,150.51 219.5,151C 220.308,152.706 221.641,153.539 223.5,153.5C 223.5,155.5 223.5,157.5 223.5,159.5C 216.748,157.14 210.081,154.806 203.5,152.5C 206.579,152.74 209.579,152.407 212.5,151.5C 217.694,149.749 217.694,148.249 212.5,147C 212.728,146.601 213.062,146.435 213.5,146.5 Z"/></g>
<g><path style="opacity:1" fill="#0e265b" d="M 307.5,146.5 C 310.739,148.571 314.406,149.904 318.5,150.5C 319.167,152.5 319.833,154.5 320.5,156.5C 321.613,154.969 323.113,153.969 325,153.5C 326.662,153.388 327.829,154.054 328.5,155.5C 326.776,156.033 325.109,157.199 323.5,159C 323.957,159.414 324.291,159.914 324.5,160.5C 319.456,160.79 314.456,160.79 309.5,160.5C 312.126,162.193 314.793,163.026 317.5,163C 317.167,164 316.833,165 316.5,166C 312.732,167.209 309.732,166.209 307.5,163C 302.872,161.51 298.206,160.343 293.5,159.5C 294.706,158.12 294.373,156.953 292.5,156C 295.544,155.641 295.878,154.974 293.5,154C 295.301,153.683 295.634,153.016 294.5,152C 297.482,151.502 300.482,151.335 303.5,151.5C 303.408,148.6 304.741,146.933 307.5,146.5 Z"/></g>
<g><path style="opacity:1" fill="#2e436c" d="M 176.5,141.5 C 183.175,141.334 189.842,141.5 196.5,142C 198.382,142.198 200.048,142.698 201.5,143.5C 196.423,143.038 191.423,143.038 186.5,143.5C 182.833,143.5 179.167,143.5 175.5,143.5C 175.5,144.5 175.5,145.5 175.5,146.5C 169.031,147.948 169.031,148.948 175.5,149.5C 175.5,149.833 175.5,150.167 175.5,150.5C 166.655,151.555 158.655,154.555 151.5,159.5C 148.705,160.063 146.372,161.396 144.5,163.5C 143.662,163.158 143.328,162.492 143.5,161.5C 150.466,153.019 159.133,147.019 169.5,143.5C 172.152,143.59 174.485,142.924 176.5,141.5 Z"/></g>
<g><path style="opacity:1" fill="#425979" d="M 263.5,148.5 C 270.918,148.854 277.252,151.52 282.5,156.5C 276.124,153.823 269.791,151.156 263.5,148.5 Z"/></g>
<g><path style="opacity:1" fill="#7e8ea3" d="M 452.5,148.5 C 454.117,149.038 455.784,149.371 457.5,149.5C 457.833,150.167 458.167,150.833 458.5,151.5C 456.033,151.245 454.033,150.245 452.5,148.5 Z"/></g>
<g><path style="opacity:1" fill="#1a2c54" d="M 417.5,130.5 C 418.391,131.11 419.391,131.443 420.5,131.5C 420.973,132.906 421.973,133.573 423.5,133.5C 431.883,138.358 440.55,142.692 449.5,146.5C 449.973,147.906 450.973,148.573 452.5,148.5C 454.033,150.245 456.033,151.245 458.5,151.5C 477.339,161.753 496.339,171.753 515.5,181.5C 515.158,182.338 514.492,182.672 513.5,182.5C 502.695,179.677 492.362,175.677 482.5,170.5C 465.831,162.499 449.164,154.499 432.5,146.5C 425.707,143.351 419.04,140.018 412.5,136.5C 411.506,134.146 412.506,133.146 415.5,133.5C 415.285,131.821 415.952,130.821 417.5,130.5 Z"/></g>
<g><path style="opacity:1" fill="#ccd5e0" d="M 347.5,159.5 C 346.127,159.657 344.793,159.49 343.5,159C 336.688,155.909 330.021,152.742 323.5,149.5C 323.735,148.903 324.235,148.57 325,148.5C 329.613,149.624 333.78,151.624 337.5,154.5C 338.812,153.54 340.146,153.706 341.5,155C 341.167,155.333 340.833,155.667 340.5,156C 343.174,156.67 345.507,157.837 347.5,159.5 Z"/></g>
<g><path style="opacity:1" fill="#2a3a51" d="M 123.5,151.5 C 123.5,152.5 123.5,153.5 123.5,154.5C 124.5,154.5 125.5,154.5 126.5,154.5C 126.5,154.833 126.5,155.167 126.5,155.5C 122.124,158.874 118.458,162.874 115.5,167.5C 114.662,167.158 114.328,166.492 114.5,165.5C 114.5,165.167 114.5,164.833 114.5,164.5C 116.748,159.678 119.748,155.345 123.5,151.5 Z"/></g>
<g><path style="opacity:1" fill="#203059" d="M 431.5,150.5 C 443.052,155.646 454.719,160.646 466.5,165.5C 465.081,166.451 463.415,166.784 461.5,166.5C 445.99,162.459 430.656,158.125 415.5,153.5C 418.856,153.843 420.856,152.843 421.5,150.5C 423.548,151.083 425.381,151.083 427,150.5C 428.689,153.133 430.189,153.133 431.5,150.5 Z"/></g>
<g><path style="opacity:1" fill="#10295c" d="M 223.5,150.5 C 229.392,154.16 235.726,156.993 242.5,159C 238.892,159.026 235.558,159.859 232.5,161.5C 230.149,159.771 227.482,159.104 224.5,159.5C 224.167,159.5 223.833,159.5 223.5,159.5C 223.5,157.5 223.5,155.5 223.5,153.5C 221.641,153.539 220.308,152.706 219.5,151C 220.793,150.51 222.127,150.343 223.5,150.5 Z"/></g>
<g><path style="opacity:1" fill="#253d65" d="M 261.5,146.5 C 264.833,146.833 268.167,147.167 271.5,147.5C 274.088,149.592 277.088,150.925 280.5,151.5C 282.958,153.713 285.958,154.879 289.5,155C 291.037,156.11 291.703,157.61 291.5,159.5C 288.327,158.958 285.327,157.958 282.5,156.5C 277.252,151.52 270.918,148.854 263.5,148.5C 262.833,147.833 262.167,147.167 261.5,146.5 Z"/></g>
<g><path style="opacity:1" fill="#142955" d="M 303.5,142.5 C 304.167,142.5 304.833,142.5 305.5,142.5C 311.267,145.204 317.267,147.538 323.5,149.5C 330.021,152.742 336.688,155.909 343.5,159C 344.793,159.49 346.127,159.657 347.5,159.5C 349.22,160.308 350.887,161.308 352.5,162.5C 354.509,164.065 356.843,165.065 359.5,165.5C 366.413,169.256 373.747,172.256 381.5,174.5C 387.417,177.361 393.417,180.028 399.5,182.5C 394.558,181.616 389.725,180.282 385,178.5C 381.707,181.337 378.874,181.004 376.5,177.5C 378.991,176.459 378.991,175.626 376.5,175C 373.078,174.29 369.911,173.124 367,171.5C 365.989,172.337 364.822,172.67 363.5,172.5C 363.903,175.521 365.236,178.021 367.5,180C 367.333,180.833 367.167,181.667 367,182.5C 363.313,180.289 359.813,177.955 356.5,175.5C 357.03,171.603 356.03,168.27 353.5,165.5C 348.833,164.603 344.333,163.27 340,161.5C 339.682,163.061 338.849,164.228 337.5,165C 337.833,165.333 338.167,165.667 338.5,166C 335.874,168.029 334.874,167.195 335.5,163.5C 331.344,163.578 328.011,165.245 325.5,168.5C 328.795,169.401 332.128,169.401 335.5,168.5C 335.5,169.833 335.5,171.167 335.5,172.5C 337.696,172.565 339.696,173.232 341.5,174.5C 339.025,174.964 337.025,175.964 335.5,177.5C 320.538,172.012 305.871,166.012 291.5,159.5C 292.167,159.5 292.833,159.5 293.5,159.5C 298.206,160.343 302.872,161.51 307.5,163C 309.732,166.209 312.732,167.209 316.5,166C 316.833,165 317.167,164 317.5,163C 314.793,163.026 312.126,162.193 309.5,160.5C 314.456,160.79 319.456,160.79 324.5,160.5C 324.291,159.914 323.957,159.414 323.5,159C 325.109,157.199 326.776,156.033 328.5,155.5C 327.829,154.054 326.662,153.388 325,153.5C 323.113,153.969 321.613,154.969 320.5,156.5C 319.833,154.5 319.167,152.5 318.5,150.5C 314.406,149.904 310.739,148.571 307.5,146.5C 305.959,145.333 304.625,144 303.5,142.5 Z"/></g>
<g><path style="opacity:1" fill="#b7bfd3" d="M 244.5,157.5 C 246.288,157.215 247.955,157.548 249.5,158.5C 251.901,159.358 253.901,160.691 255.5,162.5C 251.407,161.618 247.74,159.951 244.5,157.5 Z"/></g>
<g><path style="opacity:1" fill="#c9d4de" d="M 432.5,146.5 C 449.164,154.499 465.831,162.499 482.5,170.5C 480.274,172.783 477.941,172.783 475.5,170.5C 473.236,168.738 470.236,167.071 466.5,165.5C 454.719,160.646 443.052,155.646 431.5,150.5C 431.5,150.167 431.5,149.833 431.5,149.5C 433.796,149.196 434.129,148.196 432.5,146.5 Z"/></g>
<g><path style="opacity:1" fill="#aeb7cc" d="M 255.5,163.5 C 255.5,163.167 255.5,162.833 255.5,162.5C 258.649,162.415 261.316,163.415 263.5,165.5C 260.673,165.416 258.006,164.75 255.5,163.5 Z"/></g>
<g><path style="opacity:1" fill="#a4aec5" d="M 352.5,162.5 C 355.491,162.166 357.824,163.166 359.5,165.5C 356.843,165.065 354.509,164.065 352.5,162.5 Z"/></g>
<g><path style="opacity:1" fill="#575f68" d="M 143.5,161.5 C 143.328,162.492 143.662,163.158 144.5,163.5C 142.229,165.266 140.063,167.266 138,169.5C 138.744,166.228 140.577,163.561 143.5,161.5 Z"/></g>
<g><path style="opacity:1" fill="#485163" d="M 466.5,165.5 C 470.236,167.071 473.236,168.738 475.5,170.5C 470.665,169.373 465.998,168.04 461.5,166.5C 463.415,166.784 465.081,166.451 466.5,165.5 Z"/></g>
<g><path style="opacity:1" fill="#7b838a" d="M 114.5,165.5 C 114.328,166.492 114.662,167.158 115.5,167.5C 114.343,169.138 113.176,170.804 112,172.5C 111.167,169.522 112,167.189 114.5,165.5 Z"/></g>
<g><path style="opacity:1" fill="#c0c8d9" d="M 236.5,164.5 C 241.046,166.122 245.379,168.122 249.5,170.5C 244.254,170.273 239.921,168.273 236.5,164.5 Z"/></g>
<g><path style="opacity:1" fill="#132857" d="M 223.5,149.5 C 230.516,152.171 237.516,154.838 244.5,157.5C 247.74,159.951 251.407,161.618 255.5,162.5C 255.5,162.833 255.5,163.167 255.5,163.5C 258.762,165.81 262.095,168.143 265.5,170.5C 270.284,170.846 274.284,172.679 277.5,176C 273.517,176.004 269.517,175.671 265.5,175C 264.167,174.333 263.167,173.333 262.5,172C 259.518,171.502 256.518,171.335 253.5,171.5C 252.292,170.766 250.959,170.433 249.5,170.5C 245.379,168.122 241.046,166.122 236.5,164.5C 232.261,163.204 228.261,161.538 224.5,159.5C 227.482,159.104 230.149,159.771 232.5,161.5C 235.558,159.859 238.892,159.026 242.5,159C 235.726,156.993 229.392,154.16 223.5,150.5C 223.5,150.167 223.5,149.833 223.5,149.5 Z"/></g>
<g><path style="opacity:1" fill="#1b2b51" d="M 255.5,163.5 C 258.006,164.75 260.673,165.416 263.5,165.5C 281.574,175.134 300.907,181.3 321.5,184C 319.618,184.198 317.952,184.698 316.5,185.5C 311.167,185.5 305.833,185.5 300.5,185.5C 299.791,184.596 298.791,184.263 297.5,184.5C 296.4,183.442 295.066,182.608 293.5,182C 288.882,181.006 284.215,180.506 279.5,180.5C 275.789,179.656 272.123,178.656 268.5,177.5C 263.324,175.739 258.324,173.739 253.5,171.5C 256.518,171.335 259.518,171.502 262.5,172C 263.167,173.333 264.167,174.333 265.5,175C 269.517,175.671 273.517,176.004 277.5,176C 274.284,172.679 270.284,170.846 265.5,170.5C 262.095,168.143 258.762,165.81 255.5,163.5 Z"/></g>
<g><path style="opacity:1" fill="#dde4ec" d="M 381.5,174.5 C 388.671,174.39 395.004,176.557 400.5,181C 405.284,179.724 408.95,181.224 411.5,185.5C 410.833,185.5 410.167,185.5 409.5,185.5C 406.156,184.492 402.823,183.492 399.5,182.5C 393.417,180.028 387.417,177.361 381.5,174.5 Z"/></g>
<g><path style="opacity:1" fill="#e1e9f1" d="M 268.5,177.5 C 272.123,178.656 275.789,179.656 279.5,180.5C 285.191,182.707 291.191,184.041 297.5,184.5C 298.791,184.263 299.791,184.596 300.5,185.5C 297.552,185.223 294.719,185.556 292,186.5C 287.661,185.015 283.161,184.182 278.5,184C 275.973,181.426 272.64,179.259 268.5,177.5 Z"/></g>
<g><path style="opacity:1" fill="#2d3e5a" d="M 279.5,180.5 C 284.215,180.506 288.882,181.006 293.5,182C 295.066,182.608 296.4,183.442 297.5,184.5C 291.191,184.041 285.191,182.707 279.5,180.5 Z"/></g>
<g><path style="opacity:1" fill="#959ba0" d="M 515.5,181.5 C 521.848,183.636 521.848,184.47 515.5,184C 514.584,183.722 513.918,183.222 513.5,182.5C 514.492,182.672 515.158,182.338 515.5,181.5 Z"/></g>
<g><path style="opacity:1" fill="#26345a" d="M 345.5,181.5 C 351.358,181.301 356.691,182.801 361.5,186C 364.482,186.498 367.482,186.665 370.5,186.5C 370.343,187.873 370.51,189.207 371,190.5C 372.878,191.053 374.378,192.053 375.5,193.5C 365.011,190.395 355.011,186.395 345.5,181.5 Z"/></g>
<g><path style="opacity:1" fill="#1b2d53" d="M 409.5,185.5 C 410.167,185.5 410.833,185.5 411.5,185.5C 417.93,188.201 424.597,190.534 431.5,192.5C 436.949,194.616 442.616,196.282 448.5,197.5C 451.37,198.634 454.37,199.3 457.5,199.5C 462.248,201.138 467.248,202.138 472.5,202.5C 473.167,202.5 473.5,202.833 473.5,203.5C 466.506,203 459.506,202.5 452.5,202C 451.833,201.333 451.167,200.667 450.5,200C 441.258,198.216 432.258,195.549 423.5,192C 418.844,191.335 414.177,190.835 409.5,190.5C 409.5,188.833 409.5,187.167 409.5,185.5 Z"/></g>
<g><path style="opacity:1" fill="#c8ced9" d="M 448.5,197.5 C 442.616,196.282 436.949,194.616 431.5,192.5C 434.066,192.656 436.566,192.322 439,191.5C 442.147,193.712 445.313,195.712 448.5,197.5 Z"/></g>
<g><path style="opacity:1" fill="#213358" d="M 378.5,194.5 C 384.102,194.852 389.602,194.852 395,194.5C 398.085,196.022 400.252,198.355 401.5,201.5C 393.51,199.924 385.843,197.59 378.5,194.5 Z"/></g>
<g><path style="opacity:1" fill="#0e2759" d="M 399.5,182.5 C 402.823,183.492 406.156,184.492 409.5,185.5C 409.5,187.167 409.5,188.833 409.5,190.5C 414.177,190.835 418.844,191.335 423.5,192C 432.258,195.549 441.258,198.216 450.5,200C 451.167,200.667 451.833,201.333 452.5,202C 459.506,202.5 466.506,203 473.5,203.5C 475.5,203.5 477.5,203.5 479.5,203.5C 480.334,204.748 481.667,205.415 483.5,205.5C 489.155,206.127 494.821,206.627 500.5,207C 497.776,207.27 495.109,207.77 492.5,208.5C 488.235,207.561 483.902,207.228 479.5,207.5C 479.5,208.5 479.5,209.5 479.5,210.5C 470.143,210.832 460.81,210.498 451.5,209.5C 452.804,207.984 452.304,207.318 450,207.5C 446.542,208.286 443.042,208.62 439.5,208.5C 435.196,207.869 430.863,207.369 426.5,207C 424.192,205.133 421.525,204.133 418.5,204C 415.183,203.502 411.85,203.335 408.5,203.5C 406.485,202.076 404.152,201.41 401.5,201.5C 400.252,198.355 398.085,196.022 395,194.5C 389.602,194.852 384.102,194.852 378.5,194.5C 377.609,193.89 376.609,193.557 375.5,193.5C 374.378,192.053 372.878,191.053 371,190.5C 370.51,189.207 370.343,187.873 370.5,186.5C 367.482,186.665 364.482,186.498 361.5,186C 356.691,182.801 351.358,181.301 345.5,181.5C 344.833,181.5 344.167,181.5 343.5,181.5C 340.615,180.617 337.948,179.284 335.5,177.5C 337.025,175.964 339.025,174.964 341.5,174.5C 339.696,173.232 337.696,172.565 335.5,172.5C 335.5,171.167 335.5,169.833 335.5,168.5C 332.128,169.401 328.795,169.401 325.5,168.5C 328.011,165.245 331.344,163.578 335.5,163.5C 334.874,167.195 335.874,168.029 338.5,166C 338.167,165.667 337.833,165.333 337.5,165C 338.849,164.228 339.682,163.061 340,161.5C 344.333,163.27 348.833,164.603 353.5,165.5C 356.03,168.27 357.03,171.603 356.5,175.5C 359.813,177.955 363.313,180.289 367,182.5C 367.167,181.667 367.333,180.833 367.5,180C 365.236,178.021 363.903,175.521 363.5,172.5C 364.822,172.67 365.989,172.337 367,171.5C 369.911,173.124 373.078,174.29 376.5,175C 378.991,175.626 378.991,176.459 376.5,177.5C 378.874,181.004 381.707,181.337 385,178.5C 389.725,180.282 394.558,181.616 399.5,182.5 Z"/></g>
<g><path style="opacity:1" fill="#a5b2bf" d="M 457.5,199.5 C 462.894,199.124 467.894,200.124 472.5,202.5C 467.248,202.138 462.248,201.138 457.5,199.5 Z"/></g>
<g><path style="opacity:1" fill="#415069" d="M 401.5,201.5 C 404.152,201.41 406.485,202.076 408.5,203.5C 405.848,203.59 403.515,202.924 401.5,201.5 Z"/></g>
<g><path style="opacity:1" fill="#596269" d="M 513.5,205.5 C 511.393,204.532 509.059,204.198 506.5,204.5C 510.664,203.389 514.997,202.889 519.5,203C 517.512,203.938 515.512,204.772 513.5,205.5 Z"/></g>
<g><path style="opacity:1" fill="#313f5d" d="M 408.5,203.5 C 411.85,203.335 415.183,203.502 418.5,204C 421.525,204.133 424.192,205.133 426.5,207C 430.863,207.369 435.196,207.869 439.5,208.5C 444.115,210.039 448.782,211.372 453.5,212.5C 438.174,210.671 423.174,207.671 408.5,203.5 Z"/></g>
<g><path style="opacity:1" fill="#152950" d="M 479.5,203.5 C 488.467,204.383 497.467,204.716 506.5,204.5C 509.059,204.198 511.393,204.532 513.5,205.5C 510.843,205.935 508.509,206.935 506.5,208.5C 499.007,209.636 491.673,210.969 484.5,212.5C 474.167,212.5 463.833,212.5 453.5,212.5C 448.782,211.372 444.115,210.039 439.5,208.5C 443.042,208.62 446.542,208.286 450,207.5C 452.304,207.318 452.804,207.984 451.5,209.5C 460.81,210.498 470.143,210.832 479.5,210.5C 479.5,209.5 479.5,208.5 479.5,207.5C 483.902,207.228 488.235,207.561 492.5,208.5C 495.109,207.77 497.776,207.27 500.5,207C 494.821,206.627 489.155,206.127 483.5,205.5C 481.667,205.415 480.334,204.748 479.5,203.5 Z"/></g>
<g><path style="opacity:1" fill="#cad6e5" d="M 506.5,208.5 C 499.717,211.453 492.383,212.786 484.5,212.5C 491.673,210.969 499.007,209.636 506.5,208.5 Z"/></g>
</svg>
